<?xml version="1.0" encoding="UTF-8"?>
<svg version="1.1" xmlns="http://www.w3.org/2000/svg" width="425" height="426">
<path d="M0 0 C140.25 0 280.5 0 425 0 C425 140.58 425 281.16 425 426 C284.75 426 144.5 426 0 426 C0 285.42 0 144.84 0 0 Z " fill="#2F2F2F" transform="translate(0,0)"/>
<path d="M0 0 C140.25 0 280.5 0 425 0 C425 140.58 425 281.16 425 426 C284.75 426 144.5 426 0 426 C0 285.42 0 144.84 0 0 Z M90.5 51.125 C89.85353516 51.60356445 89.20707031 52.08212891 88.54101562 52.57519531 C84.56745786 55.59551098 81.02819726 58.85678489 77.54492188 62.42919922 C75.77873482 64.22497158 73.92360141 65.87488847 72 67.5 C37.35922726 97.55303124 14.26172696 146.5332264 10.6640625 192.046875 C10.00415808 201.36298553 9.80922614 210.66161952 10 220 C10.00515625 221.29292969 10.0103125 222.58585938 10.015625 223.91796875 C10.44629898 246.97538149 16.26851178 271.85076282 26.3515625 292.60546875 C27.54095516 295.05471571 28.67566404 297.49900576 29.7734375 299.98828125 C34.54456094 310.6929473 40.32602799 320.37550807 47 330 C47.72960938 331.05832031 48.45921875 332.11664063 49.2109375 333.20703125 C55.40424326 341.80628664 62.57780866 349.46259969 70 357 C70.59055176 357.60134766 71.18110352 358.20269531 71.78955078 358.82226562 C81.58142644 368.6706484 92.28252712 376.57982355 104 384 C104.74072754 384.46954102 105.48145508 384.93908203 106.24462891 385.42285156 C135.49636324 403.74529451 169.5698258 413.81628009 204 415 C204.76699219 415.02868164 205.53398437 415.05736328 206.32421875 415.08691406 C235.10504928 416.02645357 265.36579101 411.14217929 291.453125 398.69140625 C293.99522201 397.47915074 296.53944632 396.3018917 299.109375 395.15234375 C345.74760959 374.12086977 380.91513185 333.74657708 400.27734375 286.91015625 C401.25780421 284.29165742 402.14513004 281.66209505 403 279 C403.39703125 277.81664062 403.7940625 276.63328125 404.203125 275.4140625 C419.50103445 229.03339804 417.45378205 177.87549439 398 133 C397.67773438 132.24541504 397.35546875 131.49083008 397.0234375 130.71337891 C382.13412533 96.23645027 356.16169567 65.83572895 325 45 C324.40413086 44.59040039 323.80826172 44.18080078 323.19433594 43.75878906 C308.38374406 33.6185602 291.87045934 26.93800972 275 21 C273.88020752 20.59140747 273.88020752 20.59140747 272.73779297 20.17456055 C266.54685558 17.98726366 260.25033306 16.68569149 253.8125 15.4375 C252.77802734 15.22931641 251.74355469 15.02113281 250.67773438 14.80664062 C194.5847236 3.74067251 136.41886983 17.01689065 90.5 51.125 Z " fill="#2D2D2D" transform="translate(0,0)"/>
<path d="M0 0 C2.94908056 1.40528925 5.91948411 2.74878827 8.90087891 4.08349609 C29.1160822 13.24555636 46.51835004 26.22631049 62.41015625 41.625 C63.45623047 42.62853516 63.45623047 42.62853516 64.5234375 43.65234375 C101.75889114 80.06217757 121.77321464 131.63398238 122.64282227 183.26098633 C122.82897944 214.69008509 116.55497322 245.44663306 102.41015625 273.625 C102.06436523 274.31916016 101.71857422 275.01332031 101.36230469 275.72851562 C96.40676781 285.60390594 90.99240078 294.72886064 84.41015625 303.625 C83.67539062 304.6459375 82.940625 305.666875 82.18359375 306.71875 C57.56875571 339.97759472 22.78976926 364.92342218 -16.58984375 377.625 C-17.66492188 377.98207031 -18.74 378.33914063 -19.84765625 378.70703125 C-41.7368997 385.74851077 -64.65571127 388.44546325 -87.58984375 387.625 C-88.32783203 387.60421387 -89.06582031 387.58342773 -89.82617188 387.56201172 C-133.14935354 386.25534739 -183.59957229 368.30486646 -213.984375 336.26953125 C-215.76872866 334.44176266 -217.65248964 332.78927944 -219.58984375 331.125 C-244.24514656 309.73498681 -261.32583821 279.32658485 -271.58984375 248.625 C-271.91710449 247.72503296 -271.91710449 247.72503296 -272.25097656 246.80688477 C-278.32251396 229.62728366 -281.51724467 210.82921845 -281.58984375 192.625 C-281.615625 191.36300781 -281.64140625 190.10101563 -281.66796875 188.80078125 C-282.33861167 135.31700825 -262.38871963 84.04013618 -225.296875 45.3984375 C-168.40172097 -12.92699958 -75.44262872 -35.9678802 0 0 Z M-140.58984375 13.625 C-141.84023437 14.0375 -143.090625 14.45 -144.37890625 14.875 C-169.2084013 23.74707764 -192.00764865 40.14627601 -210.58984375 58.625 C-211.30648193 59.3355957 -211.30648193 59.3355957 -212.03759766 60.06054688 C-232.7505792 80.89499123 -247.0847553 108.37087704 -254.96435547 136.40332031 C-255.48403132 138.24916349 -256.02106394 140.09010955 -256.5625 141.9296875 C-264.44006032 169.24384139 -263.67591823 201.17091244 -256.58984375 228.625 C-256.36425781 229.52605469 -256.13867188 230.42710937 -255.90625 231.35546875 C-255.18155631 234.12731976 -254.38895743 236.87371364 -253.58984375 239.625 C-253.27660156 240.80320312 -252.96335937 241.98140625 -252.640625 243.1953125 C-249.50474659 254.51510361 -244.39047392 264.45023764 -238.58984375 274.625 C-238.24550293 275.23472656 -237.90116211 275.84445312 -237.54638672 276.47265625 C-213.94595608 317.84239944 -174.5595138 348.24023167 -128.84570312 361.1965332 C-80.33838133 374.38758581 -32.72950287 366.92739117 11.41015625 343.625 C36.79786664 329.05550986 57.33492869 308.97166283 73.41015625 284.625 C74.07789063 283.64402344 74.745625 282.66304688 75.43359375 281.65234375 C84.48725062 267.78557681 91.03444065 251.50054548 95.47265625 235.5625 C95.79363281 234.41652344 96.11460937 233.27054688 96.4453125 232.08984375 C96.76371094 230.94644531 97.08210938 229.80304688 97.41015625 228.625 C97.74660156 227.54347656 98.08304687 226.46195313 98.4296875 225.34765625 C102.24858316 210.84802452 102.69615766 195.66586304 102.66015625 180.75 C102.65929016 180.05898193 102.65842407 179.36796387 102.65753174 178.65600586 C103.0614685 171.4335322 103.0614685 171.4335322 101.41015625 164.625 C101.19877756 162.90885619 100.99196188 161.19195123 100.81494141 159.47192383 C99.92173112 150.8519428 98.02801121 142.90049022 95.41015625 134.625 C94.92869141 132.97177734 94.92869141 132.97177734 94.4375 131.28515625 C89.07014607 113.01007668 80.45738221 96.11700829 69.41015625 80.625 C68.77078125 79.69945313 68.13140625 78.77390625 67.47265625 77.8203125 C46.07364657 47.91033306 13.00538791 22.6731879 -22.58984375 12.625 C-24.00971692 12.13417964 -25.42671707 11.63491903 -26.83984375 11.125 C-63.54178679 -1.06457455 -104.34419296 1.39548598 -140.58984375 13.625 Z " fill="#313334" transform="translate(291.58984375,27.375)"/>
<path d="M0 0 C2.94908056 1.40528925 5.91948411 2.74878827 8.90087891 4.08349609 C29.1160822 13.24555636 46.51835004 26.22631049 62.41015625 41.625 C63.45623047 42.62853516 63.45623047 42.62853516 64.5234375 43.65234375 C101.75889114 80.06217757 121.77321464 131.63398238 122.64282227 183.26098633 C122.82897944 214.69008509 116.55497322 245.44663306 102.41015625 273.625 C102.06436523 274.31916016 101.71857422 275.01332031 101.36230469 275.72851562 C96.40676781 285.60390594 90.99240078 294.72886064 84.41015625 303.625 C83.67539062 304.6459375 82.940625 305.666875 82.18359375 306.71875 C57.56875571 339.97759472 22.78976926 364.92342218 -16.58984375 377.625 C-17.66492188 377.98207031 -18.74 378.33914063 -19.84765625 378.70703125 C-41.7368997 385.74851077 -64.65571127 388.44546325 -87.58984375 387.625 C-88.32783203 387.60421387 -89.06582031 387.58342773 -89.82617188 387.56201172 C-133.14935354 386.25534739 -183.59957229 368.30486646 -213.984375 336.26953125 C-215.76872866 334.44176266 -217.65248964 332.78927944 -219.58984375 331.125 C-244.24514656 309.73498681 -261.32583821 279.32658485 -271.58984375 248.625 C-271.91710449 247.72503296 -271.91710449 247.72503296 -272.25097656 246.80688477 C-278.32251396 229.62728366 -281.51724467 210.82921845 -281.58984375 192.625 C-281.615625 191.36300781 -281.64140625 190.10101563 -281.66796875 188.80078125 C-282.33861167 135.31700825 -262.38871963 84.04013618 -225.296875 45.3984375 C-168.40172097 -12.92699958 -75.44262872 -35.9678802 0 0 Z M-227.33984375 51.625 C-228.4388172 52.94547198 -229.51987078 54.2809216 -230.58984375 55.625 C-231.00186035 56.13530762 -231.41387695 56.64561523 -231.83837891 57.17138672 C-233.2832927 58.96299896 -234.71953215 60.76119643 -236.15234375 62.5625 C-236.5999707 63.12388672 -237.04759766 63.68527344 -237.50878906 64.26367188 C-249.20594249 79.16962745 -258.63962094 96.02463792 -265.58984375 113.625 C-266.0384375 114.73617187 -266.48703125 115.84734375 -266.94921875 116.9921875 C-270.86491788 127.26485497 -273.2757264 137.89652618 -275.58984375 148.625 C-275.82832031 149.7284375 -276.06679688 150.831875 -276.3125 151.96875 C-278.04152307 161.08774574 -278.28658592 170.37002031 -278.58984375 179.625 C-278.61852539 180.35460937 -278.64720703 181.08421875 -278.67675781 181.8359375 C-280.5315196 233.11188367 -259.97581524 284.05950218 -225.36352539 321.52587891 C-204.72559703 343.5283982 -179.6852539 360.55982254 -151.58984375 371.625 C-150.45804688 372.07230469 -149.32625 372.51960938 -148.16015625 372.98046875 C-133.36057279 378.53458495 -118.32908201 382.23814089 -102.58984375 383.625 C-101.39359375 383.73585938 -100.19734375 383.84671875 -98.96484375 383.9609375 C-95.17469325 384.26316933 -91.38856551 384.47791756 -87.58984375 384.625 C-86.87441406 384.65368164 -86.15898437 384.68236328 -85.421875 384.71191406 C-39.76763435 386.26384393 5.05180069 371.60035899 41.41015625 344 C42.10423584 343.4738208 42.79831543 342.9476416 43.51342773 342.40551758 C47.59448649 339.23716512 51.28643405 335.86416562 54.89160156 332.16503906 C56.60198815 330.43045408 58.40616563 328.86162338 60.28515625 327.3125 C81.72174598 308.61684827 96.93022017 282.18291589 106.61425781 255.72729492 C107.17973624 254.23363396 107.77622154 252.75155077 108.39355469 251.27856445 C110.92547959 245.23701126 112.65195473 239.27258999 114.03515625 232.875 C114.2475293 231.91271484 114.45990234 230.95042969 114.67871094 229.95898438 C121.02080244 200.63787297 121.4038629 169.88307554 114.41015625 140.625 C114.17377441 139.60986328 114.17377441 139.60986328 113.93261719 138.57421875 C102.42848554 89.31582337 70.57486751 44.5779789 27.71875 17.58984375 C17.44795382 11.38620139 6.71142592 6.31832284 -4.3137207 1.61157227 C-5.83635715 0.95159438 -7.35069813 0.27215306 -8.85620117 -0.42602539 C-14.02779912 -2.81933938 -19.1288967 -4.54998139 -24.65234375 -5.9375 C-25.88670166 -6.25328003 -25.88670166 -6.25328003 -27.14599609 -6.57543945 C-34.90945869 -8.52266369 -42.68634413 -10.11798217 -50.58984375 -11.375 C-51.88664063 -11.58125 -53.1834375 -11.7875 -54.51953125 -12 C-117.66495131 -21.15539638 -184.85754836 4.27599774 -227.33984375 51.625 Z " fill="#99CCD2" transform="translate(291.58984375,27.375)"/>
<path d="M0 0 C1.08796875 0.45890625 2.1759375 0.9178125 3.296875 1.390625 C24.36084166 10.45799089 42.91157297 21.33574067 59.78125 36.9921875 C61.33449287 38.39776291 62.9422066 39.74437168 64.5859375 41.04296875 C66.68734831 42.74653965 68.37957573 44.3859411 70.125 46.4375 C70.71539062 47.12972656 71.30578125 47.82195312 71.9140625 48.53515625 C72.60242188 49.34855469 73.29078125 50.16195312 74 51 C74.88211476 52.02013501 75.76497531 53.03962543 76.6484375 54.05859375 C90.77705232 70.4279453 102.26405044 88.7519127 110 109 C110.29358398 109.76441406 110.58716797 110.52882813 110.88964844 111.31640625 C117.88995355 129.93408003 122.64991025 150.04488397 123 170 C123.03867187 171.13179687 123.07734375 172.26359375 123.1171875 173.4296875 C123.54495336 195.53092373 120.13605742 217.58752848 113.140625 238.5390625 C112.21417956 241.3501264 111.42914651 244.13800513 110.6875 247 C108.4704782 254.40658681 104.59851529 261.1922128 101 268 C100.65694824 268.66338379 100.31389648 269.32676758 99.96044922 270.01025391 C91.00704978 287.25714935 78.90029729 302.45612059 65 316 C64.51144531 316.53367187 64.02289063 317.06734375 63.51953125 317.6171875 C49.64725214 332.37753746 31.66259249 342.86777751 13.81616211 352.0625 C12.58502894 352.69800899 11.35937338 353.34422231 10.13891602 354 C4.79476728 356.80384143 -0.68213305 358.71217553 -6.4375 360.5 C-7.40034912 360.80188232 -8.36319824 361.10376465 -9.35522461 361.41479492 C-43.72117922 372.01103538 -78.93453424 374.20395664 -113.92138672 365.51025391 C-115.8490019 365.03706672 -117.78560458 364.60090895 -119.72265625 364.16796875 C-131.04125218 361.47071901 -141.44767628 356.82429913 -152 352 C-153.74023438 351.20722656 -153.74023438 351.20722656 -155.515625 350.3984375 C-172.64791634 342.19875795 -187.85450358 330.47465863 -201.52929688 317.39892578 C-202.96827784 316.03017396 -204.42927176 314.68468369 -205.890625 313.33984375 C-225.41448862 295.0114524 -238.15907633 271.9028582 -248.06298828 247.32421875 C-248.85688778 245.35498393 -249.67397795 243.395123 -250.49609375 241.4375 C-267.00170856 199.4793016 -264.3174557 147.83651255 -247 106.75 C-245.71062288 103.81172872 -244.3699446 100.90146534 -243 98 C-242.7009375 97.35643555 -242.401875 96.71287109 -242.09375 96.04980469 C-233.56422037 77.81983902 -222.31304975 62.01206895 -208.45947266 47.52685547 C-207.47491573 46.49684225 -206.4955186 45.46187541 -205.52099609 44.42236328 C-186.93752285 24.64848962 -164.13282714 10.06043868 -139 0 C-137.84628906 -0.46921875 -136.69257813 -0.9384375 -135.50390625 -1.421875 C-93.18118293 -17.57330298 -41.83320485 -17.79305646 0 0 Z M-116 -4 C-118.13870595 -3.47015962 -120.2780405 -2.94285071 -122.41796875 -2.41796875 C-127.11922935 -1.26440244 -131.52840115 0.16121169 -136 2 C-136.84433594 2.32484375 -137.68867188 2.6496875 -138.55859375 2.984375 C-152.19931956 8.38884167 -165.06874189 15.47295127 -177 24 C-177.97195312 24.68578125 -178.94390625 25.3715625 -179.9453125 26.078125 C-187.27928282 31.40147683 -193.93056431 37.26621703 -200.45800781 43.52978516 C-201.87971881 44.88531771 -203.32556686 46.21541412 -204.7734375 47.54296875 C-222.77659161 64.56941215 -235.95198592 87.08730667 -245 110 C-245.44859375 111.11117187 -245.8971875 112.22234375 -246.359375 113.3671875 C-255.1700753 136.48167903 -258.5846392 161.36163375 -258 186 C-257.98324219 187.02738281 -257.96648437 188.05476562 -257.94921875 189.11328125 C-256.00986769 234.49409596 -235.66395936 278.27931095 -204.3359375 310.61279297 C-203.15365014 311.8404532 -201.99667882 313.09238411 -200.84375 314.34765625 C-178.43353508 338.09386475 -146.41589911 354.06752958 -115.1875 362.3125 C-114.26960693 362.55500488 -113.35171387 362.79750977 -112.40600586 363.04736328 C-98.32791406 366.59983763 -84.7016196 367.43953398 -70.25 367.4375 C-69.29901428 367.43889984 -68.34802856 367.44029968 -67.3682251 367.44174194 C-52.00615028 367.4231696 -37.85429382 366.16616522 -23 362 C-21.41690411 361.58762905 -19.83357985 361.17613354 -18.25 360.765625 C16.41077776 351.45371765 46.40047609 331.79561098 71 306 C71.59941406 305.38253906 72.19882812 304.76507813 72.81640625 304.12890625 C79.33181529 297.07970466 84.61113301 288.91653791 90 281 C90.73734375 279.92621094 91.4746875 278.85242188 92.234375 277.74609375 C110.40739615 249.8686793 119.41710063 215.22131453 119.26074219 182.25073242 C119.25002965 179.569919 119.26069399 176.88977749 119.2734375 174.20898438 C119.28866042 159.11732668 117.67002734 145.1525069 113.5625 130.5625 C113.26279297 129.45712891 112.96308594 128.35175781 112.65429688 127.21289062 C107.78702166 109.52810542 100.39925449 92.15247057 90 77 C89.54141602 76.32259766 89.08283203 75.64519531 88.61035156 74.94726562 C80.95730648 63.7227995 72.61269531 53.5933316 63 44 C62.48002441 43.47212891 61.96004883 42.94425781 61.42431641 42.40039062 C52.85669455 33.76987209 43.24348239 27.01383279 33.08398438 20.37451172 C31.39495072 19.26049351 29.73216314 18.1067513 28.078125 16.94140625 C19.87203036 11.2833824 10.59952397 7.72925771 1.41162109 3.98535156 C-0.58034355 3.17146522 -2.56299404 2.33482282 -4.54296875 1.4921875 C-10.83547546 -1.09645045 -17.23488757 -2.98707139 -23.8125 -4.6875 C-24.96697632 -4.99155762 -24.96697632 -4.99155762 -26.14477539 -5.30175781 C-40.57695691 -8.85676007 -55.15000537 -9.43664324 -69.9375 -9.4375 C-71.27921768 -9.44059677 -71.27921768 -9.44059677 -72.64804077 -9.4437561 C-87.66146727 -9.43756334 -101.45500474 -7.89077955 -116 -4 Z " fill="#98CBD1" transform="translate(281,34)"/>
<path d="M0 0 C1.08796875 0.46019531 2.1759375 0.92039062 3.296875 1.39453125 C26.03054866 11.12930792 46.35785686 24.67675589 64 42 C64.75796875 42.7417749 64.75796875 42.7417749 65.53125 43.49853516 C83.41508498 61.26011736 99.6498179 86.31556464 106.35546875 110.74609375 C106.95863416 112.85534493 107.68514711 114.83995714 108.5 116.875 C111.81479072 125.58717247 113.35798279 134.51965384 114.35375977 143.74414062 C114.7227111 147.4928814 114.7227111 147.4928814 116 151 C117.55448516 176.96932328 115.12755624 202.24607959 107 227 C106.67128906 228.02867187 106.34257812 229.05734375 106.00390625 230.1171875 C105.08993481 232.79004621 104.07634746 235.38806349 103 238 C102.74025391 238.639375 102.48050781 239.27875 102.21289062 239.9375 C92.75392026 262.98982514 78.55596109 283.34573478 61 301 C60.52626953 301.47775879 60.05253906 301.95551758 59.56445312 302.44775391 C52.03586239 309.93245368 43.77848058 315.97467551 34.90039062 321.75830078 C33.19734271 322.87105794 31.51150457 324.01005047 29.828125 325.15234375 C15.02505475 334.83569929 -2.11784606 340.97559378 -19 346 C-19.84739746 346.25402588 -20.69479492 346.50805176 -21.56787109 346.76977539 C-48.39349622 354.47957745 -78.99538963 354.74513874 -106 348 C-106.97275879 347.75862305 -107.94551758 347.51724609 -108.94775391 347.26855469 C-158.87175956 334.52097656 -198.58338244 303.38888992 -225.03125 259.4140625 C-232.69365782 246.12647434 -237.76603893 232.74710169 -242 218 C-242.51046875 216.22882813 -242.51046875 216.22882813 -243.03125 214.421875 C-255.12751846 169.18183097 -246.94961227 119.28377319 -224 79 C-221.79387629 75.23781687 -219.45766466 71.60260081 -217 68 C-216.63100586 67.4544043 -216.26201172 66.90880859 -215.88183594 66.34667969 C-190.24115125 28.79172072 -152.44103254 4.64307518 -109 -7 C-107.98099609 -7.27448975 -106.96199219 -7.54897949 -105.91210938 -7.83178711 C-99.82737828 -9.41824632 -93.88719309 -10.61844839 -87.625 -11.1875 C-86.77832764 -11.26572998 -85.93165527 -11.34395996 -85.05932617 -11.42456055 C-56.89968781 -13.79033136 -26.02833849 -11.91206843 0 0 Z M-89.4128418 -7.26293945 C-91.1551142 -7.08586789 -92.89890555 -6.92321658 -94.64379883 -6.77416992 C-99.5591154 -6.34290428 -104.06869595 -5.62727608 -108.8125 -4.1875 C-110.00230469 -3.82914063 -111.19210938 -3.47078125 -112.41796875 -3.1015625 C-114.19107422 -2.55628906 -114.19107422 -2.55628906 -116 -2 C-117.10988281 -1.67773438 -118.21976562 -1.35546875 -119.36328125 -1.0234375 C-146.98975737 7.11562013 -170.07152307 22.48171141 -191 42 C-191.85207031 42.77472656 -192.70414063 43.54945312 -193.58203125 44.34765625 C-211.97664407 61.77271408 -228.68207053 87.07173432 -235.359375 111.68359375 C-236.39354804 115.42301211 -237.67419492 119.07666577 -238.96484375 122.734375 C-249.00343161 153.85802892 -248.05426472 193.29755944 -237 224 C-236.73203613 224.76795898 -236.46407227 225.53591797 -236.18798828 226.32714844 C-227.28278606 251.68939554 -214.05782253 274.02108949 -195.875 293.875 C-195.40868164 294.38603271 -194.94236328 294.89706543 -194.46191406 295.42358398 C-168.55424273 323.15162431 -134.7709208 338.46510808 -98.28222656 346.49511719 C-96.46263736 346.89765361 -94.64826454 347.32374899 -92.8359375 347.7578125 C-51.18554587 356.48105087 -2.10855316 342.3588744 33 320 C39.77060616 315.37532585 46.07847186 310.11956731 52.171875 304.640625 C53.43575039 303.50637786 54.71847668 302.39291505 56.015625 301.296875 C60.83689574 297.21167613 64.99663547 292.88505791 69 288 C69.8353125 286.99066406 70.670625 285.98132813 71.53125 284.94140625 C95.79220503 255.15324041 111.53371997 217.5667853 113 179 C113.02868164 178.30438965 113.05736328 177.6087793 113.08691406 176.89208984 C113.8691909 154.97348493 110.90366815 134.04553498 103.77978516 113.31445312 C103.14827077 111.44007729 102.5848793 109.54284164 102.04296875 107.640625 C97.8031181 92.85336265 89.049588 78.35312692 80 66 C79.24332031 64.95972656 78.48664063 63.91945313 77.70703125 62.84765625 C69.62876348 51.95199302 60.60937974 41.50296372 50 33 C48.67548828 31.90171875 48.67548828 31.90171875 47.32421875 30.78125 C7.79129762 -0.96564473 -39.72323441 -12.45689391 -89.4128418 -7.26293945 Z " fill="#98CBD1" transform="translate(278,43)"/>
<path d="M0 0 C0.969375 0.763125 1.93875 1.52625 2.9375 2.3125 C2.9375 2.9725 2.9375 3.6325 2.9375 4.3125 C-0.64346955 2.97603101 -3.80726164 1.37391981 -7.0625 -0.625 C-7.8875 -1.12902344 -8.7125 -1.63304688 -9.5625 -2.15234375 C-11.26747778 -3.19930667 -12.96917638 -4.25162399 -14.66796875 -5.30859375 C-27.12890962 -12.48430685 -46.35971322 -10.87453069 -59.875 -7.875 C-60.62120605 -7.7097583 -61.36741211 -7.5445166 -62.13623047 -7.37426758 C-66.26198702 -6.37092211 -69.52948257 -5.01991682 -73.0625 -2.6875 C-75.39583333 -1.6875 -77.72916667 -0.6875 -80.0625 0.3125 C-80.92875 0.89 -81.795 1.4675 -82.6875 2.0625 C-85.78247675 3.69143513 -86.72268581 3.28197384 -90.0625 2.3125 C-92.55462446 1.08331446 -94.99257739 -0.18480434 -97.4375 -1.5 C-115.94796639 -10.95035777 -136.46375777 -12.84076817 -156.52734375 -7.03125 C-162.98895686 -4.57512303 -168.81466499 -1.21551342 -174.265625 3.02734375 C-176.0625 4.3125 -176.0625 4.3125 -178.0625 4.3125 C-178.0625 3.6525 -178.0625 2.9925 -178.0625 2.3125 C-158.37590974 -13.10431654 -133.27189999 -20.42394847 -109.0625 -24.6875 C-107.64759277 -24.95336914 -107.64759277 -24.95336914 -106.20410156 -25.22460938 C-70.26238632 -30.52034236 -29.86995331 -20.44263371 0 0 Z " fill="#343535" transform="translate(299.0625,81.6875)"/>
<path d="M0 0 C1.74800829 0.15030645 3.49855209 0.27226144 5.25 0.375 C11.47597802 0.91781975 15.91665253 1.80700266 20.375 6.5 C23.58488118 11.43827874 23.68929395 16.28291486 23 22 C20.57587968 29.86360983 15.66279879 35.32435172 9 40 C5.4375 41.5 5.4375 41.5 3 42 C2.67 41.34 2.34 40.68 2 40 C2.76392551 38.57700149 3.58834223 37.18634061 4.4375 35.8125 C8.25120182 28.49316697 8.26736374 20.25159106 6.34765625 12.296875 C5.13931352 8.87854276 5.13931352 8.87854276 3 6 C-2.61264844 5.79590369 -5.57038869 7.00722241 -9.875 10.625 C-15.59056457 16.12985252 -19.67755805 22.56307805 -23.88330078 29.234375 C-35.94290231 48.30193912 -35.94290231 48.30193912 -44.5 50.625 C-48.32528877 51.20042805 -51.22814395 50.66497766 -54.87890625 49.51171875 C-58.21515422 48.70684125 -61.48720355 48.90589115 -64.8984375 49.02734375 C-67 49 -67 49 -69 48 C-69 47.34 -69 46.68 -69 46 C-69.66 46 -70.32 46 -71 46 C-71.25 38.375 -71.25 38.375 -69 35 C-68.34 35 -67.68 35 -67 35 C-67 34.34 -67 33.68 -67 33 C-60.375 30 -60.375 30 -57 30 C-57.14308594 31.13888672 -57.14308594 31.13888672 -57.2890625 32.30078125 C-57.45535156 33.79158203 -57.45535156 33.79158203 -57.625 35.3125 C-57.74101562 36.29863281 -57.85703125 37.28476562 -57.9765625 38.30078125 C-58.25476995 41.22657416 -58.25476995 41.22657416 -56 44 C-52.05274021 42.47431757 -50.28558291 40.11951916 -47.8125 36.75 C-47.42521729 36.22422363 -47.03793457 35.69844727 -46.63891602 35.15673828 C-43.32874871 30.60016233 -40.32301177 25.86657969 -37.32128906 21.10400391 C-33.94435628 15.79803169 -30.3678715 10.54593821 -26 6 C-25.34 6 -24.68 6 -24 6 C-24 5.34 -24 4.68 -24 4 C-16.22426701 -0.72278793 -8.9144421 -2.9714807 0 0 Z " fill="#83ABB0" transform="translate(321,289)"/>
<path d="M0 0 C2.67462639 0.52187832 4.90843827 0.42734007 7.625 0.3125 C10.97311474 0.29254104 12.25415313 0.31646019 15.1875 2.0625 C17.06717817 5.39465675 16.97336482 7.73373911 16.5625 11.5 C15.9025 12.49 15.2425 13.48 14.5625 14.5 C13.9025 14.5 13.2425 14.5 12.5625 14.5 C12.5625 15.16 12.5625 15.82 12.5625 16.5 C8.70493493 18.65305957 6.01120215 19.89253254 1.5625 19.5 C1.72621094 18.93796875 1.88992187 18.3759375 2.05859375 17.796875 C2.59114997 15.36940944 2.66148681 13.23110319 2.625 10.75 C2.61597656 9.95078125 2.60695313 9.1515625 2.59765625 8.328125 C2.58605469 7.72484375 2.57445312 7.1215625 2.5625 6.5 C-0.37390293 6.19878853 -0.37390293 6.19878853 -2.04418945 7.71264648 C-6.55937441 12.29940809 -10.15505485 17.15227343 -13.625 22.5625 C-14.13224609 23.33916016 -14.63949219 24.11582031 -15.16210938 24.91601562 C-17.91973588 29.13655011 -17.91973588 29.13655011 -20.61962891 33.39404297 C-21.50895903 34.79567329 -22.46615815 36.15390541 -23.4375 37.5 C-24.0975 37.5 -24.7575 37.5 -25.4375 37.5 C-25.81648438 38.37785156 -25.81648438 38.37785156 -26.203125 39.2734375 C-28.84438939 44.03774352 -33.49989018 47.53119509 -38.3125 49.9375 C-43.70975522 50.90900594 -49.1983353 51.24638823 -54.4375 49.5 C-56.70717775 49.3731236 -58.97835626 49.27217256 -61.25 49.1875 C-70.49513176 48.54891873 -70.49513176 48.54891873 -74.4375 44.5 C-78.03371888 38.50630187 -78.61750116 32.22894403 -76.921875 25.43359375 C-74.16136715 18.73530265 -68.17863896 13.67759473 -62.4375 9.5 C-59.58984375 8.71484375 -59.58984375 8.71484375 -57.4375 8.5 C-57.96609555 11.14297776 -58.75109292 13.13850106 -59.953125 15.5859375 C-61.81986128 19.90638803 -61.91770198 23.90798426 -61.875 28.5625 C-61.89498047 29.33916016 -61.91496094 30.11582031 -61.93554688 30.91601562 C-61.93098669 36.30159935 -60.80062956 39.12460174 -57.4375 43.5 C-57.4375 44.16 -57.4375 44.82 -57.4375 45.5 C-47.23092337 43.18361381 -40.94326515 37.20504865 -35.33984375 28.53125 C-34.00395827 26.36289418 -32.68248074 24.18560085 -31.375 22 C-16.14321165 -3.31142803 -16.14321165 -3.31142803 0 0 Z " fill="#2F3030" transform="translate(157.4375,87.5)"/>
<path d="M0 0 C1.89694615 -0.10679104 3.7927679 -0.23429006 5.6875 -0.375 C10.38636118 -0.42039962 12.86777798 0.01852435 16.4375 3.125 C18.18359375 4.8828125 18.18359375 4.8828125 20 7 C20.79664063 7.9075 21.59328125 8.815 22.4140625 9.75 C25.29676537 13.23456191 27.60394377 17.01013326 29.9375 20.875 C32.67495073 25.3474979 35.41127869 29.72235299 38.625 33.875 C41 37 41 37 41 39 C41.556875 39.268125 42.11375 39.53625 42.6875 39.8125 C45 41 45 41 47.375 42.625 C50.6253797 44.32757985 52.38586463 44.69206848 56 44 C60.49470785 38.53346342 61.18132755 33.97641624 61.1875 27.125 C61.19974609 26.41730469 61.21199219 25.70960937 61.22460938 24.98046875 C61.2362275 20.8211789 60.70958166 17.77053979 59 14 C59 13.01 59 12.02 59 11 C58.34 11 57.68 11 57 11 C57 10.01 57 9.02 57 8 C63.37533466 11.00266878 68.96821432 15.17630958 73 21 C73.52078125 21.7321875 74.0415625 22.464375 74.578125 23.21875 C77.25024887 28.44554174 76.61666055 34.28248424 76 40 C74.58463566 43.8644997 72.43173255 45.7121783 69 48 C66.26843062 48.27542851 63.61223976 48.4638824 60.875 48.5625 C56.05191515 48.32823765 56.05191515 48.32823765 52 50 C43.45434626 50.86622611 36.76745033 49.48464918 30.0625 44.0625 C22.50561472 37.02422449 16.89201792 28.1145798 11.5078125 19.375 C10.03999273 16.98119291 10.03999273 16.98119291 8.3046875 14.8125 C7 13 7 13 7 11 C6.34 11 5.68 11 5 11 C3.2856382 9.04072937 1.61594832 7.04119788 0 5 C-0.99 5.33 -1.98 5.66 -3 6 C-3.5745952 9.73486879 -4 13.21293268 -4 17 C-3.34 17 -2.68 17 -2 17 C-2 17.66 -2 18.32 -2 19 C-7.41333124 18.3555558 -11.76480616 17.01167446 -15.875 13.3125 C-17.55579122 9.85754026 -17.79343603 6.75919206 -17 3 C-12.74414221 -2.4914294 -6.11395635 -2.03798545 0 0 Z " fill="#393B3B" transform="translate(267,88)"/>
<path d="M0 0 C4.66527122 2.30766092 7.02196519 5.55639587 9.07421875 10.33984375 C9.62206992 13.18373826 9.65978943 15.94533761 9.640625 18.8359375 C9.64992287 20.02450096 9.64992287 20.02450096 9.65940857 21.23707581 C9.66647399 22.90356221 9.66339029 24.5701197 9.65063477 26.23657227 C9.63677114 28.76777771 9.67087961 31.29527794 9.70898438 33.82617188 C9.78118356 48.6134784 9.78118356 48.6134784 5.41259766 54.01416016 C4.7501001 54.67037354 4.7501001 54.67037354 4.07421875 55.33984375 C3.42066406 55.98824219 2.76710937 56.63664062 2.09375 57.3046875 C-2.0450151 59.42610482 -6.43686871 59.12603747 -10.92578125 58.33984375 C-15.76809832 55.76414318 -18.25704317 52.51819144 -19.92578125 47.33984375 C-20.13784967 44.52735315 -20.25349994 41.81619044 -20.26171875 39.00390625 C-20.26837555 38.20632904 -20.27503235 37.40875183 -20.28189087 36.58700562 C-20.2919874 34.90438126 -20.29670882 33.22171711 -20.29638672 31.5390625 C-20.30075574 28.9797897 -20.33709302 26.42224887 -20.375 23.86328125 C-20.38086987 22.2226621 -20.38483812 20.58203482 -20.38671875 18.94140625 C-20.40108978 18.18389069 -20.41546082 17.42637512 -20.43026733 16.64590454 C-20.38321189 11.10853428 -19.07218298 7.91284367 -15.92578125 3.33984375 C-11.0507262 -0.98122777 -6.13767514 -2.10399006 0 0 Z " fill="#A0D7DE" transform="translate(135.92578125,191.66015625)"/>
<path d="M0 0 C3.3 0 6.6 0 10 0 C10 5.28 10 10.56 10 16 C12.64 16 15.28 16 18 16 C22.57713626 18.28856813 25.99684818 21.23860261 28 26 C28.53897712 29.77521127 28.46613245 33.49789631 28.390625 37.3046875 C28.38496521 38.38380402 28.37930542 39.46292053 28.37347412 40.57473755 C28.35115097 44.00861676 28.30096017 47.44143816 28.25 50.875 C28.22992984 53.20831822 28.21167997 55.54165286 28.1953125 57.875 C28.15129915 63.58373857 28.08229791 69.29169017 28 75 C24.7 75 21.4 75 18 75 C17.67 59.49 17.34 43.98 17 28 C14.69 27.34 12.38 26.68 10 26 C10 42.17 10 58.34 10 75 C6.7 75 3.4 75 0 75 C0 50.25 0 25.5 0 0 Z " fill="#A0D7DE" transform="translate(82,175)"/>
<path d="M0 0 C2.96466807 1.10246809 5.77194461 2.36763597 8.56640625 3.83984375 C9.21802734 4.18080078 9.86964844 4.52175781 10.54101562 4.87304688 C11.86567909 5.57057498 13.18619861 6.27604335 14.50195312 6.99023438 C25.41554625 12.64400799 36.11941669 13.42523505 48.25 13.1875 C49.59243265 13.17240372 50.93488201 13.15872418 52.27734375 13.14648438 C55.51866944 13.11150604 58.75910662 13.06242337 62 13 C38.51895407 28.65403062 -0.69979741 28.17744248 -27.56079102 23.50415039 C-38.36924275 21.32929444 -48.77106172 18.09438933 -59 14 C-56.02096491 13.12536243 -53.49075754 12.92304782 -50.39453125 13.04296875 C-31.54570334 13.56016739 -17.15552778 10.91568208 -1 1 C-0.67 0.67 -0.34 0.34 0 0 Z " fill="#2C2E2E" transform="translate(211,343)"/>
<path d="M0 0 C4.48723248 2.27213678 6.1969367 4.72396113 7.96875 9.30859375 C8.30548724 12.2840375 8.25426947 15.19443362 8.15625 18.18359375 C8.0634375 22.20546875 8.0634375 22.20546875 7.96875 26.30859375 C2.02875 26.30859375 -3.91125 26.30859375 -10.03125 26.30859375 C-9.70125 32.90859375 -9.37125 39.50859375 -9.03125 46.30859375 C-7.38125 46.63859375 -5.73125 46.96859375 -4.03125 47.30859375 C-2.53381881 45.81116256 -2.69922307 44.32035136 -2.46875 42.24609375 C-2.2521875 40.29703125 -2.2521875 40.29703125 -2.03125 38.30859375 C0.93875 38.30859375 3.90875 38.30859375 6.96875 38.30859375 C7.53271867 50.2354867 7.53271867 50.2354867 3.96875 54.30859375 C0.67202528 57.19322788 -1.94474453 58.20609323 -6.34375 58.62109375 C-10.7967115 58.24372413 -12.63549213 57.17612262 -16.03125 54.30859375 C-20.23510921 49.25016699 -20.62428704 45.48033917 -20.5625 39.18359375 C-20.56824036 37.88591064 -20.56824036 37.88591064 -20.57409668 36.56201172 C-20.57680865 34.73989696 -20.56949766 32.91774279 -20.55273438 31.09570312 C-20.53131341 28.31682006 -20.55255922 25.54052202 -20.578125 22.76171875 C-20.5754816 20.98567141 -20.57035635 19.20962568 -20.5625 17.43359375 C-20.57059692 16.60843262 -20.57869385 15.78327148 -20.58703613 14.93310547 C-20.50081273 9.59221276 -19.54429469 6.56208518 -16.03125 2.30859375 C-11.42359292 -1.64082661 -5.63513717 -1.918114 0 0 Z " fill="#A1D8DE" transform="translate(269.03125,191.69140625)"/>
<path d="M0 0 C3.3 0 6.6 0 10 0 C10.33 15.51 10.66 31.02 11 47 C11.99 47 12.98 47 14 47 C14.33 31.49 14.66 15.98 15 0 C18.3 0 21.6 0 25 0 C25 19.47 25 38.94 25 59 C10.17241379 59 10.17241379 59 4.125 55.1875 C0.6087352 51.56781565 -0.25321805 47.98482118 -0.22705078 43.02612305 C-0.22689972 42.06550461 -0.22674866 41.10488617 -0.22659302 40.11515808 C-0.21627045 39.0910231 -0.20594788 38.06688812 -0.1953125 37.01171875 C-0.1924826 35.95338333 -0.18965271 34.89504791 -0.18673706 33.80464172 C-0.1755629 30.43214502 -0.15046307 27.05991613 -0.125 23.6875 C-0.11496664 21.3977903 -0.10584141 19.10807643 -0.09765625 16.81835938 C-0.07563255 11.21213676 -0.04112141 5.60611375 0 0 Z " fill="#A3DCE3" transform="translate(151,192)"/>
<path d="M0 0 C3.92057304 1.96028652 6.41175581 4.93873631 8 9 C8.1953125 11.796875 8.1953125 11.796875 8.125 14.75 C8.10695313 15.73484375 8.08890625 16.7196875 8.0703125 17.734375 C8.04710937 18.48203125 8.02390625 19.2296875 8 20 C4.7 20 1.4 20 -2 20 C-2.33 17.03 -2.66 14.06 -3 11 C-4.66611905 10.957279 -6.33382885 10.95936168 -8 11 C-9.28431067 12.08762999 -9.28431067 12.08762999 -9.41796875 14.6875 C-8.8525461 19.16860664 -6.51996712 21.11215153 -3.3125 24 C7.65039472 34.23025899 7.65039472 34.23025899 8.62890625 39.18359375 C8.39142091 50.82037534 8.39142091 50.82037534 4 56 C-0.69597568 58.74670276 -4.59545629 59.68785102 -10 59 C-15.08643801 56.26114877 -18.17004027 53.4898792 -20 48 C-20.0685495 46.10529184 -20.08480372 44.2083166 -20.0625 42.3125 C-20.05347656 41.31863281 -20.04445313 40.32476562 -20.03515625 39.30078125 C-20.02355469 38.54152344 -20.01195312 37.78226563 -20 37 C-16.7 37 -13.4 37 -10 37 C-9.67 40.3 -9.34 43.6 -9 47 C-7.34385343 47.38218767 -5.67542976 47.71395102 -4 48 C-2.65671611 46.85935009 -2.65671611 46.85935009 -2.58203125 43.8515625 C-3.1360477 38.74632679 -5.12859498 36.86297725 -8.6875 33.375 C-9.21794922 32.8284375 -9.74839844 32.281875 -10.29492188 31.71875 C-12.74796294 29.20250174 -15.224093 26.80192873 -17.859375 24.47265625 C-21.13322096 20.69100572 -20.63406166 17.68257638 -20.421875 12.87890625 C-19.85522141 9.0120202 -18.64572324 6.86024134 -16 4 C-14.9790625 2.824375 -14.9790625 2.824375 -13.9375 1.625 C-9.39367158 -0.88860721 -5.06857104 -0.86953491 0 0 Z " fill="#A2D9E0" transform="translate(303,191)"/>
<path d="M0 0 C3.63 0 7.26 0 11 0 C11.66 5.28 12.32 10.56 13 16 C13.33 16 13.66 16 14 16 C14.66 11.05 15.32 6.1 16 1 C19.3 1 22.6 1 26 1 C25.51761216 12.92289951 24.45833184 24.66117787 22.84326172 36.48339844 C22.49277014 39.05300526 22.15392491 41.62397237 21.81640625 44.1953125 C21.59701505 45.83863003 21.37698848 47.4818629 21.15625 49.125 C21.05517944 49.88941406 20.95410889 50.65382812 20.84997559 51.44140625 C20.11605774 56.76788453 20.11605774 56.76788453 19 59 C15.37 59 11.74 59 8 59 C7.86424561 58.03924561 7.72849121 57.07849121 7.58862305 56.08862305 C6.95681741 51.6213115 6.32245006 47.15436558 5.6875 42.6875 C5.51717758 41.48791656 5.51717758 41.48791656 5.34341431 40.26409912 C3.92705512 30.3009787 2.49787608 20.34279887 0.81323242 10.4206543 C0.21882926 6.83635528 0 3.67234682 0 0 Z " fill="#A1D8DF" transform="translate(217,191)"/>
<path d="M0 0 C15.86321768 -0.92948541 15.86321768 -0.92948541 21.1328125 3.1640625 C30.65516868 12.5270487 42.75482416 26.26447249 47 39 C47.66 39 48.32 39 49 39 C50.35386936 40.65002828 51.68678142 42.3174387 53 44 C53.66 44.33 54.32 44.66 55 45 C55.19601608 43.25093341 55.38147403 41.50068154 55.5625 39.75 C55.66691406 38.77546875 55.77132812 37.8009375 55.87890625 36.796875 C55.98974468 34.2368648 55.77738092 32.41851841 55 30 C64.82204047 32.17419925 64.82204047 32.17419925 68.1875 35.75 C70 39 70 39 70.125 42.625 C69 46 69 46 67.1875 48.5 C62.82523139 50.55283229 59.44232773 49.90051586 54.7421875 49.26171875 C51.91088609 48.80474268 51.91088609 48.80474268 49 50 C43.22028862 50.54525579 40.49069262 49.64868775 36 46 C30.04857282 40.77776997 26.07750495 34.80221521 22 28.0625 C13.6724217 13.61607402 13.6724217 13.61607402 0 5 C-2.80480279 4.64220347 -2.80480279 4.64220347 -5 6 C-9.09646908 12.43730855 -9.82363639 19.52224856 -9 27 C-8.15153022 29.66110976 -7.14172792 32.14069753 -5.97265625 34.67578125 C-4.95468529 37.10828213 -4.43624547 39.40548745 -4 42 C-12.64930973 37.48038118 -20.9433375 31.71899971 -24 22 C-24.89739294 14.92520448 -24.38613759 9.69012444 -20 4 C-16.24785236 0.57892421 -12.49768761 0.55465508 -7.62890625 0.70703125 C2.31910925 1.81565111 10.14146971 6.89055434 16.66845703 14.30908203 C20.02673671 18.5737401 22.71434961 23.33472656 25.54150391 27.95874023 C32.62959015 39.90326106 32.62959015 39.90326106 44 47 C47.72471396 46.69485998 47.72471396 46.69485998 51 46 C50.01 44.02 50.01 44.02 49 42 C48.34 42 47.68 42 47 42 C45.3359375 40.015625 45.3359375 40.015625 43.375 37.25 C42.65957031 36.24453125 41.94414062 35.2390625 41.20703125 34.203125 C39.11252428 31.16330957 37.08108172 28.09057402 35.0625 25 C25.53445659 10.57074224 25.53445659 10.57074224 11 2 C9.10787263 1.77820215 7.21115528 1.59385985 5.3125 1.4375 C4.31863281 1.35371094 3.32476562 1.26992188 2.30078125 1.18359375 C1.16189453 1.09271484 1.16189453 1.09271484 0 1 C0 0.67 0 0.34 0 0 Z " fill="#93C4CA" transform="translate(104,289)"/>
<path d="M0 0 C3.3 0 6.6 0 10 0 C10 5.28 10 10.56 10 16 C12.31 16 14.62 16 17 16 C17 19.3 17 22.6 17 26 C14.69 26 12.38 26 10 26 C10.01939234 31.07280803 10.0710197 36.14387441 10.15258789 41.21606445 C10.17578911 42.94155386 10.19016862 44.6671853 10.19555664 46.39282227 C10.20483139 48.87346117 10.2457835 51.35185971 10.29296875 53.83203125 C10.2890361 54.60400345 10.28510345 55.37597565 10.28105164 56.17134094 C10.2926002 58.61369134 10.2926002 58.61369134 11 62 C13.40768866 63.90864871 13.40768866 63.90864871 16 65 C16.48828125 67.48046875 16.48828125 67.48046875 16.3125 70.1875 C16.26738281 71.08855469 16.22226562 71.98960937 16.17578125 72.91796875 C16.11777344 73.60503906 16.05976563 74.29210937 16 75 C11.07931814 75.60008315 8.53650636 74.45595952 4.61328125 71.77734375 C-0.06793822 66.62006806 -0.42533595 60.8325361 -0.29296875 54.22265625 C-0.28872391 53.41130722 -0.28447906 52.59995819 -0.28010559 51.76402283 C-0.26343867 49.19649744 -0.22581048 46.62978436 -0.1875 44.0625 C-0.1724376 42.31186037 -0.15875193 40.56120832 -0.14648438 38.81054688 C-0.11357468 34.54005608 -0.06187726 30.27016531 0 26 C-2.31 26 -4.62 26 -7 26 C-7 22.7 -7 19.4 -7 16 C-4.69 16 -2.38 16 0 16 C0 10.72 0 5.44 0 0 Z " fill="#A2DAE1" transform="translate(324,175)"/>
<path d="M0 0 C3.3 0 6.6 0 10 0 C10 0.66 10 1.32 10 2 C11.794375 1.87625 11.794375 1.87625 13.625 1.75 C18.11394216 1.75 20.52520264 3.09086733 24 6 C26.84843954 9.11716025 27.35301685 11.05690638 27.1875 15.25 C27.16042969 16.14203125 27.13335937 17.0340625 27.10546875 17.953125 C27.07066406 18.62859375 27.03585938 19.3040625 27 20 C24.03 20 21.06 20 18 20 C17.34 17.69 16.68 15.38 16 13 C14.33388095 12.957279 12.66617115 12.95936168 11 13 C9.44341518 14.55658482 9.83690601 16.07867736 9.79467773 18.24438477 C9.77473251 19.14524307 9.75478729 20.04610138 9.73423767 20.97425842 C9.71752518 21.95341721 9.70081268 22.93257599 9.68359375 23.94140625 C9.66281265 24.93881332 9.64203156 25.9362204 9.62062073 26.96385193 C9.55501363 30.16332843 9.49618866 33.36288982 9.4375 36.5625 C9.39432538 38.72592039 9.35071145 40.88933206 9.30664062 43.05273438 C9.19932091 48.36840164 9.09808531 53.68415464 9 59 C6.03 59 3.06 59 0 59 C0 39.53 0 20.06 0 0 Z " fill="#A4DCE3" transform="translate(183,191)"/>
<path d="M0 0 C0.99 0.33 1.98 0.66 3 1 C2.34 1 1.68 1 1 1 C0.75378906 1.56976563 0.50757813 2.13953125 0.25390625 2.7265625 C-1.20685319 5.37504223 -2.95944549 7.20147276 -5.0625 9.375 C-9.73031814 14.44937004 -13.34640866 19.86549117 -16.95703125 25.703125 C-17.63121094 26.79109375 -18.30539063 27.8790625 -19 29 C-19.35626465 29.57943359 -19.7125293 30.15886719 -20.07958984 30.75585938 C-20.99965843 32.20587046 -21.99408554 33.60816867 -23 35 C-23.66 35 -24.32 35 -25 35 C-25.37898438 35.87785156 -25.37898438 35.87785156 -25.765625 36.7734375 C-28.40688939 41.53774352 -33.06239018 45.03119509 -37.875 47.4375 C-43.27225522 48.40900594 -48.7608353 48.74638823 -54 47 C-56.26967775 46.8731236 -58.54085626 46.77217256 -60.8125 46.6875 C-70.05763176 46.04891873 -70.05763176 46.04891873 -74 42 C-77.59621888 36.00630187 -78.18000116 29.72894403 -76.484375 22.93359375 C-73.72386715 16.23530265 -67.74113896 11.17759473 -62 7 C-59.15234375 6.21484375 -59.15234375 6.21484375 -57 6 C-57.52859555 8.64297776 -58.31359292 10.63850106 -59.515625 13.0859375 C-61.38236128 17.40638803 -61.48020198 21.40798426 -61.4375 26.0625 C-61.45748047 26.83916016 -61.47746094 27.61582031 -61.49804688 28.41601562 C-61.49348669 33.80159935 -60.36312956 36.62460174 -57 41 C-57 41.66 -57 42.32 -57 43 C-49.26793013 41.245204 -44.56227387 37.5359747 -39 32 C-39 35 -39 35 -40.8984375 36.97265625 C-42.12433594 38.00712891 -42.12433594 38.00712891 -43.375 39.0625 C-44.18710938 39.75472656 -44.99921875 40.44695312 -45.8359375 41.16015625 C-46.55007812 41.76730469 -47.26421875 42.37445313 -48 43 C-48.66 43.66 -49.32 44.32 -50 45 C-42.44226204 45.71001714 -37.14203521 44.61701964 -31 40 C-30.505 39.01 -30.505 39.01 -30 38 C-29.34 38 -28.68 38 -28 38 C-27.7525 37.46117187 -27.505 36.92234375 -27.25 36.3671875 C-24.72441917 31.5843688 -21.40456896 27.26097838 -18.29394531 22.84375 C-16.99693332 20.99563028 -15.71278081 19.13905203 -14.4296875 17.28125 C-10.05829291 10.99976413 -5.67977701 5.18588335 0 0 Z " fill="#74969A" transform="translate(157,90)"/>
<path d="M0 0 C0.969375 0.763125 1.93875 1.52625 2.9375 2.3125 C2.9375 2.9725 2.9375 3.6325 2.9375 4.3125 C-0.64346955 2.97603101 -3.80726164 1.37391981 -7.0625 -0.625 C-7.8875 -1.12902344 -8.7125 -1.63304688 -9.5625 -2.15234375 C-11.26747778 -3.19930667 -12.96917638 -4.25162399 -14.66796875 -5.30859375 C-27.12890962 -12.48430685 -46.35971322 -10.87453069 -59.875 -7.875 C-60.62120605 -7.7097583 -61.36741211 -7.5445166 -62.13623047 -7.37426758 C-66.26198702 -6.37092211 -69.52948257 -5.01991682 -73.0625 -2.6875 C-75.39583333 -1.6875 -77.72916667 -0.6875 -80.0625 0.3125 C-80.92875 0.89 -81.795 1.4675 -82.6875 2.0625 C-85.78247675 3.69143513 -86.72268581 3.28197384 -90.0625 2.3125 C-92.55462446 1.08331446 -94.99257739 -0.18480434 -97.4375 -1.5 C-115.94796639 -10.95035777 -136.46375777 -12.84076817 -156.52734375 -7.03125 C-162.98895686 -4.57512303 -168.81466499 -1.21551342 -174.265625 3.02734375 C-176.0625 4.3125 -176.0625 4.3125 -178.0625 4.3125 C-178.0625 3.6525 -178.0625 2.9925 -178.0625 2.3125 C-158.37590974 -13.10431654 -133.27189999 -20.42394847 -109.0625 -24.6875 C-107.64759277 -24.95336914 -107.64759277 -24.95336914 -106.20410156 -25.22460938 C-70.26238632 -30.52034236 -29.86995331 -20.44263371 0 0 Z M-122.0625 -20.6875 C-123.17310791 -20.39020996 -123.17310791 -20.39020996 -124.30615234 -20.08691406 C-131.00117779 -18.26817033 -137.65775012 -16.3809704 -144.0625 -13.6875 C-144.0625 -13.3575 -144.0625 -13.0275 -144.0625 -12.6875 C-143.39831055 -12.67291748 -142.73412109 -12.65833496 -142.04980469 -12.64331055 C-123.4139337 -12.18597865 -105.2913593 -11.23671418 -89.87890625 0.58984375 C-88.01479776 1.54357615 -88.01479776 1.54357615 -85.8125 0.6875 C-81.69549401 -1.371003 -77.60611254 -3.48180296 -73.56054688 -5.67773438 C-62.81536208 -11.24426425 -52.26017127 -12.11819373 -40.3125 -11.875 C-39.03117187 -11.86146484 -37.74984375 -11.84792969 -36.4296875 -11.83398438 C-33.30683305 -11.79902705 -30.18490459 -11.7499609 -27.0625 -11.6875 C-29.66257511 -13.42088341 -31.32902045 -14.20961571 -34.23828125 -15.08984375 C-35.47058472 -15.46363159 -35.47058472 -15.46363159 -36.7277832 -15.8449707 C-37.60136475 -16.10238037 -38.47494629 -16.35979004 -39.375 -16.625 C-40.26985107 -16.89078857 -41.16470215 -17.15657715 -42.08666992 -17.43041992 C-57.19858498 -21.844209 -71.69774563 -23.92510864 -87.4375 -23.9375 C-88.20327362 -23.93817474 -88.96904724 -23.93884949 -89.75802612 -23.93954468 C-100.81728077 -23.92403014 -111.32225092 -23.56820039 -122.0625 -20.6875 Z " fill="#90BFC5" transform="translate(299.0625,81.6875)"/>
<path d="M0 0 C2.97318952 0.61121032 5.13860488 1.54387929 7.6875 3.1796875 C8.38069336 3.61289307 9.07388672 4.04609863 9.78808594 4.49243164 C10.51801758 4.9486792 11.24794922 5.40492676 12 5.875 C18.82755356 10.02864753 25.04194345 12.72720524 33 14 C33.81339844 14.17917969 34.62679687 14.35835938 35.46484375 14.54296875 C51.83901869 17.49486161 69.48957039 12.5759305 84 5 C85.04929687 4.22527344 86.09859375 3.45054687 87.1796875 2.65234375 C90 1 90 1 92.5625 1.5703125 C93.366875 2.04210937 94.17125 2.51390625 95 3 C95.804375 3.45117188 96.60875 3.90234375 97.4375 4.3671875 C98.283125 4.86476563 99.12875 5.36234375 100 5.875 C116.64305958 15.09859264 138.24878948 16.98127758 156.6875 12.5 C163.29104961 10.58772209 168.59446043 7.63919894 174.23046875 3.8046875 C176.77950724 2.14367794 179.1424859 1.01345107 182 0 C182 0.66 182 1.32 182 2 C180.11489947 3.47624595 178.26189755 4.7765109 176.25 6.0625 C175.63382813 6.45663086 175.01765625 6.85076172 174.3828125 7.25683594 C166.03107682 12.41935491 157.05320549 16.2514071 148 20 C146.783125 20.50660156 145.56625 21.01320313 144.3125 21.53515625 C127.3107561 28.09125325 109.22534364 30.18850998 91.125 30.125 C89.48337891 30.13080078 89.48337891 30.13080078 87.80859375 30.13671875 C77.51046535 30.12453162 67.37103783 29.63099882 57.3125 27.3125 C56.55340332 27.13879883 55.79430664 26.96509766 55.01220703 26.78613281 C35.25861686 22.06946758 16.8695889 13.2463926 0 2 C0 1.34 0 0.68 0 0 Z M87.67578125 3.9765625 C86.89589844 4.52054687 86.11601562 5.06453125 85.3125 5.625 C80.359897 8.83177392 75.59448915 11.13517028 70 13 C69.14019531 13.30035156 68.28039062 13.60070312 67.39453125 13.91015625 C55.62891108 17.32393268 43.1228407 16.26469084 31 16 C54.44356893 31.62904595 92.69289263 31.19201138 119.51000977 26.50415039 C130.61820486 24.26057184 141.38517925 20.9449717 152 17 C152 16.67 152 16.34 152 16 C151.1843457 16.01571045 150.36869141 16.0314209 149.52832031 16.04760742 C146.44191938 16.09936775 143.35574285 16.13665214 140.26904297 16.16479492 C138.30030432 16.1869343 136.33176638 16.22509352 134.36328125 16.26367188 C122.68864931 16.35256501 112.84208686 14.51725561 102.5625 8.9375 C100.04759765 7.61322775 97.52624857 6.30246661 95 5 C94.11570313 4.53464844 93.23140625 4.06929688 92.3203125 3.58984375 C89.96064345 2.74191506 89.96064345 2.74191506 87.67578125 3.9765625 Z " fill="#92C3C9" transform="translate(121,340)"/>
<path d="M0 0 C0.99 0.66 1.98 1.32 3 2 C1.2675 2.7425 1.2675 2.7425 -0.5 3.5 C-11.9233921 9.33194228 -18.09714354 21.19174712 -24.6875 31.6875 C-28.32615574 37.38278725 -32.81434983 43.90717491 -39 47 C-40.70702735 47.06996014 -42.41668003 47.08440154 -44.125 47.0625 C-45.03507812 47.05347656 -45.94515625 47.04445313 -46.8828125 47.03515625 C-47.58148438 47.02355469 -48.28015625 47.01195312 -49 47 C-49 42.94765773 -47.50679785 42.08213774 -44.75 39.1875 C-41.39216451 35.64860475 -38.6242878 32.11403501 -36 28 C-16.12788291 -2.76561169 -16.12788291 -2.76561169 0 0 Z " fill="#313232" transform="translate(317,290)"/>
<path d="M0 0 C1.89470816 0.0685495 3.7916834 0.08480372 5.6875 0.0625 C6.68136719 0.05347656 7.67523438 0.04445313 8.69921875 0.03515625 C9.45847656 0.02355469 10.21773438 0.01195313 11 0 C11 0.33 11 0.66 11 1 C8.36 1.33 5.72 1.66 3 2 C2.7866052 4.39478038 2.7866052 4.39478038 5.5 7 C8 10 8 10 8 12 C8.66 12 9.32 12 10 12 C11.60440581 14.22008516 13.09422992 16.44200298 14.5625 18.75 C19.11216463 25.71985761 23.74183199 32.53454863 29 39 C29.52464844 39.6496875 30.04929687 40.299375 30.58984375 40.96875 C35.8973995 46.47888421 43.76485513 46.93847295 51 48 C50.505 48.99 50.505 48.99 50 50 C42.05705725 50.42551479 36.32601653 49.14773124 30.0625 44.0625 C22.50561472 37.02422449 16.89201792 28.1145798 11.5078125 19.375 C10.03999273 16.98119291 10.03999273 16.98119291 8.3046875 14.8125 C7 13 7 13 7 11 C6.34 11 5.68 11 5 11 C3.2856382 9.04072937 1.61594832 7.04119788 0 5 C-0.99 5.33 -1.98 5.66 -3 6 C-3.5745952 9.73486879 -4 13.21293268 -4 17 C-3.34 17 -2.68 17 -2 17 C-2 17.66 -2 18.32 -2 19 C-7.41333124 18.3555558 -11.76480616 17.01167446 -15.875 13.3125 C-17.55579122 9.85754026 -17.79343603 6.75919206 -17 3 C-12.74414221 -2.4914294 -6.11395635 -2.03798545 0 0 Z " fill="#85AEB3" transform="translate(267,88)"/>
<path d="M0 0 C15.86321768 -0.92948541 15.86321768 -0.92948541 21.1328125 3.1640625 C30.65516868 12.5270487 42.75482416 26.26447249 47 39 C47.66 39 48.32 39 49 39 C50.35386936 40.65002828 51.68678142 42.3174387 53 44 C53.99 44.495 53.99 44.495 55 45 C55.19601608 43.25093341 55.38147403 41.50068154 55.5625 39.75 C55.66691406 38.77546875 55.77132812 37.8009375 55.87890625 36.796875 C55.98974468 34.2368648 55.77738092 32.41851841 55 30 C64.82204047 32.17419925 64.82204047 32.17419925 68.1875 35.75 C70 39 70 39 70.125 42.625 C68.77068297 46.68795109 67.59547575 47.74788882 64 50 C60.7734375 50.2421875 60.7734375 50.2421875 57.375 49.875 C56.24835938 49.76929688 55.12171875 49.66359375 53.9609375 49.5546875 C51 49 51 49 48 47 C48.99 46.67 49.98 46.34 51 46 C50.34 44.68 49.68 43.36 49 42 C48.34 42 47.68 42 47 42 C45.3359375 40.015625 45.3359375 40.015625 43.375 37.25 C42.65957031 36.24453125 41.94414062 35.2390625 41.20703125 34.203125 C39.11252428 31.16330957 37.08108172 28.09057402 35.0625 25 C25.53445659 10.57074224 25.53445659 10.57074224 11 2 C9.10787263 1.77820215 7.21115528 1.59385985 5.3125 1.4375 C4.31863281 1.35371094 3.32476562 1.26992188 2.30078125 1.18359375 C1.16189453 1.09271484 1.16189453 1.09271484 0 1 C0 0.67 0 0.34 0 0 Z " fill="#83ADB2" transform="translate(104,289)"/>
<path d="M0 0 C2.9375 0.375 2.9375 0.375 6 1 C7.52264109 4.04528219 7.16285537 7.22145246 7.16796875 10.5625 C7.17129715 11.30959229 7.17462555 12.05668457 7.17805481 12.82641602 C7.18311966 14.40673201 7.18546327 15.98705871 7.18530273 17.56738281 C7.18749134 19.99041243 7.20565701 22.41298836 7.22460938 24.8359375 C7.22754292 26.3697901 7.22952798 27.90364488 7.23046875 29.4375 C7.23765427 30.16461182 7.24483978 30.89172363 7.25224304 31.64086914 C7.22882803 36.77117197 7.22882803 36.77117197 5 39 C2.5 39.25 2.5 39.25 0 39 C-2.48373937 36.51626063 -2.24603042 35.05716828 -2.27789307 31.66651917 C-2.2738446 30.9425444 -2.26979614 30.21856964 -2.265625 29.47265625 C-2.26753845 28.72793564 -2.2694519 27.98321503 -2.27142334 27.21592712 C-2.27278514 25.63979759 -2.26908903 24.06365685 -2.26074219 22.48754883 C-2.25005726 20.07542666 -2.26062946 17.66405182 -2.2734375 15.25195312 C-2.27211561 13.72135252 -2.2695526 12.19075238 -2.265625 10.66015625 C-2.26967346 9.93820572 -2.27372192 9.21625519 -2.27789307 8.47242737 C-2.24321486 4.76482331 -2.11189101 3.16783652 0 0 Z " fill="#353B3B" transform="translate(128,201)"/>
<path d="M0 0 C1.33804688 0.04060547 1.33804688 0.04060547 2.703125 0.08203125 C3.37859375 0.11683594 4.0540625 0.15164063 4.75 0.1875 C4.13125 1.21875 3.5125 2.25 2.875 3.3125 C-1.51462605 11.14222307 -2.72359433 19.13128284 -0.57421875 27.96484375 C0.13010021 30.07780064 0.8803735 32.1376661 1.75 34.1875 C-4.37694196 31.25607519 -8.73514793 27.72966335 -11.55859375 21.50390625 C-13.18462831 16.05623114 -13.18665639 10.43547533 -11 5.1875 C-7.56875758 1.26608009 -5.28691944 -0.20869419 0 0 Z " fill="#282929" transform="translate(94.25,291.8125)"/>
<path d="M0 0 C4.89398083 0.68107089 9.09615572 2.6164554 13.5625 4.625 C14.35591797 4.98110352 15.14933594 5.33720703 15.96679688 5.70410156 C34.82189111 14.30721541 34.82189111 14.30721541 37 20 C33.41903045 18.66353101 30.25523836 17.06141981 27 15.0625 C25.7625 14.30646484 25.7625 14.30646484 24.5 13.53515625 C22.79502222 12.48819333 21.09332362 11.43587601 19.39453125 10.37890625 C6.93359038 3.20319315 -12.29721322 4.81296931 -25.8125 7.8125 C-26.55870605 7.9777417 -27.30491211 8.1429834 -28.07373047 8.31323242 C-32.19948702 9.31657789 -35.46698257 10.66758318 -39 13 C-41.33333333 14 -43.66666667 15 -46 16 C-46.86625 16.5775 -47.7325 17.155 -48.625 17.75 C-51.72908548 19.3837292 -52.64364328 18.96817982 -56 18 C-58.68283909 16.81770713 -61.27608983 15.48031951 -63.875 14.125 C-68.85275542 11.55613945 -73.82484717 9.14843159 -79 7 C-79 6.67 -79 6.34 -79 6 C-70.30240144 6.75631292 -62.82246906 9.97643347 -55.88671875 15.2421875 C-53.96457422 16.23534334 -53.96457422 16.23534334 -51.7421875 15.37890625 C-47.63149699 13.31184963 -43.54203744 11.20484207 -39.49804688 9.00976562 C-29.27017533 3.71122925 -19.13850812 2.55030884 -7.75 2.8125 C-6.61175781 2.82603516 -5.47351563 2.83957031 -4.30078125 2.85351562 C-1.53333013 2.88839946 1.23306105 2.93740683 4 3 C2.68 2.34 1.36 1.68 0 1 C0 0.67 0 0.34 0 0 Z " fill="#9ACED5" transform="translate(265,66)"/>
<path d="M0 0 C4.72978358 -0.47297836 8.6327178 -0.83439337 12.5 2.25 C15.82317073 5.9054878 15.82317073 5.9054878 16 9 C16.12375 10.8871875 16.12375 10.8871875 16.25 12.8125 C16.10889932 20.43193684 12.16603834 25.78230127 7 31 C5.3719908 32.38026867 3.71956118 33.73561678 2 35 C1.34 34.67 0.68 34.34 0 34 C0.27714844 33.45730469 0.55429687 32.91460937 0.83984375 32.35546875 C1.20207031 31.64003906 1.56429688 30.92460937 1.9375 30.1875 C2.47697266 29.12595703 2.47697266 29.12595703 3.02734375 28.04296875 C6.08034085 21.63044874 5.8109336 14.79320149 3.625 8.125 C2.59703684 5.31108064 1.37276404 2.66196854 0 0 Z " fill="#323333" transform="translate(326,293)"/>
<path d="M0 0 C0 3 0 3 -1.5 6.5625 C-4.69646391 14.88852742 -3.10761122 22.87459453 0 31 C0.64641844 32.3432667 1.30694843 33.68018875 2 35 C-3.21769009 35.31306141 -6.63135974 34.97861836 -11 32 C-14.10936352 27.75053652 -14.59451224 23.65036716 -14.40234375 18.515625 C-13.07038863 10.1876726 -6.18271322 5.06470625 0 0 Z " fill="#2D2F2F" transform="translate(96,99)"/>
<path d="M0 0 C10.84000711 8.86079233 10.84000711 8.86079233 12 15 C12.37772868 19.87415282 12.62790762 24.41370706 10.8125 29 C8.04924871 32.04910487 5.90277209 33.85289493 1.67578125 34.1796875 C-0.5582904 34.18670185 -2.77010712 34.13117017 -5 34 C-4.66226562 33.50371094 -4.32453125 33.00742188 -3.9765625 32.49609375 C1.61544328 23.97879015 3.3895843 15.61875531 1.546875 5.515625 C1.0868519 3.66238909 0.55184779 1.82799579 0 0 Z " fill="#393A3A" transform="translate(329,101)"/>
<path d="M0 0 C6.41797753 -0.1258427 6.41797753 -0.1258427 9.3125 0.5 C12.03559758 1.00662281 14.3033703 0.92948065 17.0625 0.8125 C20.41061474 0.79254104 21.69165313 0.81646019 24.625 2.5625 C26.50467817 5.89465675 26.41086482 8.23373911 26 12 C25.01 13.485 25.01 13.485 24 15 C23.34 15 22.68 15 22 15 C22 15.66 22 16.32 22 17 C18.14243493 19.15305957 15.44870215 20.39253254 11 20 C11.15855469 19.4328125 11.31710938 18.865625 11.48046875 18.28125 C12.55409207 13.56699422 13.09238742 8.77512956 10.5 4.5625 C7.07789594 2.42368496 3.95475389 1.79095078 0 1 C0 0.67 0 0.34 0 0 Z " fill="#61797C" transform="translate(148,87)"/>
<path d="M0 0 C6.37533466 3.00266878 11.96821432 7.17630958 16 13 C16.52078125 13.7321875 17.0415625 14.464375 17.578125 15.21875 C20.25024887 20.44554174 19.61666055 26.28248424 19 32 C17.58463566 35.8644997 15.43173255 37.7121783 12 40 C10.09887695 40.22705078 10.09887695 40.22705078 7.98828125 40.1953125 C7.23095703 40.18886719 6.47363281 40.18242187 5.69335938 40.17578125 C4.90767578 40.15902344 4.12199219 40.14226562 3.3125 40.125 C2.51521484 40.11597656 1.71792969 40.10695312 0.89648438 40.09765625 C-1.069139 40.07411585 -3.03460775 40.03824547 -5 40 C-4.22269531 39.24332031 -3.44539063 38.48664063 -2.64453125 37.70703125 C3.64358607 31.27030259 4.35850537 25.53366949 4.38012695 16.72338867 C4.29192257 12.69863713 3.62420336 9.65770597 2 6 C2 5.01 2 4.02 2 3 C1.34 3 0.68 3 0 3 C0 2.01 0 1.02 0 0 Z M5 5 C5.33 6.093125 5.66 7.18625 6 8.3125 C8.31185592 17.82796496 7.26847141 26.19181652 3 35 C2.03823061 36.36116766 1.04883661 37.70473186 0 39 C4.77003402 39.38160272 8.09465992 39.4609004 12.4375 37.25 C15.5794538 34.4912113 16.80958428 32.61482421 17.30078125 28.44921875 C17.33684693 19.94974117 15.92180849 14.76102053 9.875 8.5625 C7.76900716 6.13473373 7.76900716 6.13473373 5 5 Z " fill="#7FA4A8" transform="translate(324,96)"/>
<path d="M0 0 C0 0.66 0 1.32 0 2 C-1.94840718 3.48832371 -3.87159972 4.81595032 -5.9375 6.125 C-6.86030762 6.71462524 -6.86030762 6.71462524 -7.80175781 7.31616211 C-26.58762815 19 -26.58762815 19 -33 19 C-33 18.34 -33 17.68 -33 17 C-33.72477539 17.01571045 -34.44955078 17.0314209 -35.19628906 17.04760742 C-38.54744349 17.11078143 -41.89847197 17.14924886 -45.25 17.1875 C-46.38953125 17.21263672 -47.5290625 17.23777344 -48.703125 17.26367188 C-59.32800037 17.35422479 -68.69932538 15.48402563 -78.25 10.8125 C-79.89742187 10.01779297 -79.89742187 10.01779297 -81.578125 9.20703125 C-82.37734375 8.80871094 -83.1765625 8.41039062 -84 8 C-83.34 7.34 -82.68 6.68 -82 6 C-80.65808594 6.61488281 -80.65808594 6.61488281 -79.2890625 7.2421875 C-78.06794673 7.786993 -76.84657862 8.33123312 -75.625 8.875 C-74.44164062 9.40867187 -73.25828125 9.94234375 -72.0390625 10.4921875 C-55.96926662 16.94509525 -34.00517258 16.33902896 -18 10 C-13.41690582 7.70250084 -9.19637532 4.94192018 -5 2 C-2 0 -2 0 0 0 Z " fill="#98CBD2" transform="translate(303,340)"/>
<path d="M0 0 C9.20009934 -0.5018236 16.72737834 1.87096039 24.03515625 7.59375 C30.14666485 13.34021666 34.18847607 19.83905089 38.54150391 26.95874023 C45.65428462 38.84697873 45.65428462 38.84697873 57 46 C59.32597511 46.3813074 61.65912158 46.72460254 64 47 C62 49 62 49 58.75 49.375 C51.48105486 48.64810549 46.63234113 43.28256774 42 38 C39.49798362 34.45490018 37.2454764 30.77405196 35 27.0625 C26.52895713 12.81263898 26.52895713 12.81263898 13 4 C11.989375 3.608125 10.97875 3.21625 9.9375 2.8125 C6.64083888 1.90065756 3.39328346 1.40719402 0 1 C0 0.67 0 0.34 0 0 Z " fill="#93C5CB" transform="translate(91,290)"/>
<path d="M0 0 C3.04594267 0.33843807 4.29909045 1.23791285 6.75 3.1875 C9 6 9 6 9.625 9.125 C9 12 9 12 6.875 13.875 C3.64895068 15.13736712 1.43425905 15.38158434 -2 15 C-2.66 14.34 -3.32 13.68 -4 13 C-3.2884375 11.7315625 -3.2884375 11.7315625 -2.5625 10.4375 C-0.94278487 6.87412671 -0.38743857 3.87438575 0 0 Z " fill="#2D2F2F" transform="translate(163,322)"/>
<path d="M0 0 C0.99 0.33 1.98 0.66 3 1 C2.32195312 1.54785156 1.64390625 2.09570312 0.9453125 2.66015625 C-6.55259511 9.0468781 -11.68447084 15.93004936 -16.89501953 24.24609375 C-21.16949838 31.03086088 -25.66114304 37.94898469 -32 43 C-32.66 43 -33.32 43 -34 43 C-32.67877464 40.01762237 -31.31594877 38.20258764 -28.875 36.0625 C-24.69133451 32.01742385 -22.00057983 27.32553948 -19.0390625 22.3515625 C-7.81909548 3.90954774 -7.81909548 3.90954774 0 0 Z " fill="#85AFB4" transform="translate(314,294)"/>
<path d="M0 0 C-0.64544429 3.48539917 -2.10134397 6.02819057 -4 9 C-5 6 -5 6 -5 5 C-13.52114111 11.65881748 -13.52114111 11.65881748 -17.3046875 21.453125 C-17.43308921 26.21825503 -17.2507413 30.71287372 -15 35 C-12.49004504 36.43923199 -12.49004504 36.43923199 -10 37 C-10 37.66 -10 38.32 -10 39 C-13.49167166 38.70902736 -14.76200675 38.24460417 -17.25 35.6875 C-20.60310634 30.53808669 -20.59975819 24.99758189 -20 19 C-18.06128184 11.06616877 -11.0593455 5.93403848 -5 1 C-3 0 -3 0 0 0 Z " fill="#83ADB2" transform="translate(100,96)"/>
<path d="M0 0 C0.53625 0.268125 1.0725 0.53625 1.625 0.8125 C1.604375 2.029375 1.58375 3.24625 1.5625 4.5 C1.55675884 7.73227322 1.83733685 10.66184741 2.625 13.8125 C1.16707116 13.86649736 -0.29142712 13.90529177 -1.75 13.9375 C-2.56210937 13.96070313 -3.37421875 13.98390625 -4.2109375 14.0078125 C-6.375 13.8125 -6.375 13.8125 -8.375 11.8125 C-8.875 8.5 -8.875 8.5 -8.375 4.8125 C-6.18851782 1.8948241 -3.82864475 -0.30226143 0 0 Z " fill="#2F3131" transform="translate(260.375,322.1875)"/>
<path d="M0 0 C-7.55935674 3.80248958 -14.76411792 6.16783886 -23.0625 7.75 C-24.07376953 7.95753906 -25.08503906 8.16507812 -26.12695312 8.37890625 C-36.18009624 10.38565085 -45.8840482 11.15599184 -56.125 11.0625 C-57.55972656 11.05573242 -57.55972656 11.05573242 -59.0234375 11.04882812 C-61.34902758 11.03720017 -63.6744776 11.02086102 -66 11 C-66 10.67 -66 10.34 -66 10 C-65.34330322 9.96559814 -64.68660645 9.93119629 -64.01000977 9.89575195 C-51.38451342 9.19038641 -38.97490113 8.10899313 -26.5625 5.625 C-25.06601929 5.3297644 -25.06601929 5.3297644 -23.53930664 5.02856445 C-17.5642902 3.76699945 -12.03745467 2.01582936 -6.39038086 -0.31494141 C-3.78596803 -1.06133936 -2.51362769 -0.91080326 0 0 Z " fill="#98CBD1" transform="translate(270,359)"/>
<path d="M0 0 C6.625 -0.125 6.625 -0.125 10 1 C11.44430855 3.88861709 11.37688506 5.79647701 11 9 C8.75 11.875 8.75 11.875 6 14 C4.68 14 3.36 14 2 14 C1.93941406 13.32453125 1.87882813 12.6490625 1.81640625 11.953125 C1.73261719 11.06109375 1.64882812 10.1690625 1.5625 9.25 C1.48128906 8.36828125 1.40007812 7.4865625 1.31640625 6.578125 C1.03761535 4.30649548 0.61209423 2.20148177 0 0 Z " fill="#313132" transform="translate(161,90)"/>
<path d="M0 0 C1.21816406 0.03480469 1.21816406 0.03480469 2.4609375 0.0703125 C3.68683594 0.09738281 3.68683594 0.09738281 4.9375 0.125 C5.87722656 0.15980469 5.87722656 0.15980469 6.8359375 0.1953125 C6.68253906 0.77023438 6.52914063 1.34515625 6.37109375 1.9375 C5.42493638 5.92931723 4.8359375 10.09192612 4.8359375 14.1953125 C1.68239821 13.35436869 -0.62907269 12.69463632 -3.0390625 10.4453125 C-4.50559856 7.51224038 -4.51595867 5.43275728 -4.1640625 2.1953125 C-2.1640625 0.1953125 -2.1640625 0.1953125 0 0 Z " fill="#373838" transform="translate(256.1640625,89.8046875)"/>
<path d="M0 0 C3.61771359 3.4167295 6.28427595 6.84653969 9 11 C16.4613707 21.33253541 21.36436389 25.39921119 33.9296875 27.51953125 C34.94289063 27.67808594 35.95609375 27.83664063 37 28 C36.67 28.66 36.34 29.32 36 30 C28.05705725 30.42551479 22.32601653 29.14773124 16.0625 24.0625 C9.69312436 18.15886922 4.08900287 10.66204323 0 3 C0 2.01 0 1.02 0 0 Z " fill="#86B0B5" transform="translate(281,108)"/>
<path d="M0 0 C1.485 0.495 1.485 0.495 3 1 C2.34 1 1.68 1 1 1 C0.75378906 1.56976563 0.50757813 2.13953125 0.25390625 2.7265625 C-1.20685319 5.37504223 -2.95944549 7.20147276 -5.0625 9.375 C-9.73031814 14.44937004 -13.34640866 19.86549117 -16.95703125 25.703125 C-17.63121094 26.79109375 -18.30539063 27.8790625 -19 29 C-19.35626465 29.57943359 -19.7125293 30.15886719 -20.07958984 30.75585938 C-20.99965843 32.20587046 -21.99408554 33.60816867 -23 35 C-23.66 35 -24.32 35 -25 35 C-25.2475 35.61875 -25.495 36.2375 -25.75 36.875 C-27.20628639 39.35068687 -28.37812506 39.95125002 -31 41 C-30.67 40.01 -30.34 39.02 -30 38 C-29.34 38 -28.68 38 -28 38 C-27.7525 37.46117187 -27.505 36.92234375 -27.25 36.3671875 C-24.72441917 31.5843688 -21.40456896 27.26097838 -18.29394531 22.84375 C-16.99693332 20.99563028 -15.71278081 19.13905203 -14.4296875 17.28125 C-10.05829291 10.99976413 -5.67977701 5.18588335 0 0 Z " fill="#80A7AC" transform="translate(157,90)"/>
<path d="M0 0 C2.5691997 0.94203989 3.78416047 1.65465675 5.25 4 C7.14104964 11.56419858 6.48685008 17.75841491 2.6875 24.6015625 C-1.44943066 30.48136673 -6.79238337 35.52151454 -14 37 C-14.33 36.34 -14.66 35.68 -15 35 C-13.5625 32.375 -13.5625 32.375 -12 30 C-11.34 30.99 -10.68 31.98 -10 33 C-4.0151503 28.10788971 1.15765124 23.82998223 3 16 C3.447986 11.25881479 3.10076996 7.32511462 1 3 C0.67 2.01 0.34 1.02 0 0 Z " fill="#84ADB2" transform="translate(338,294)"/>
<path d="M0 0 C-0.14308594 1.12148438 -0.14308594 1.12148438 -0.2890625 2.265625 C-0.45535156 3.74289062 -0.45535156 3.74289062 -0.625 5.25 C-0.74101562 6.22453125 -0.85703125 7.1990625 -0.9765625 8.203125 C-1.00173901 11.20752166 -0.32555737 12.39199281 1 15 C0.625 17.25 0.625 17.25 0 19 C-1.62490954 19.02698189 -3.24994633 19.04638757 -4.875 19.0625 C-5.77992188 19.07410156 -6.68484375 19.08570313 -7.6171875 19.09765625 C-10 19 -10 19 -12 18 C-12 17.34 -12 16.68 -12 16 C-12.66 16 -13.32 16 -14 16 C-14.25 8.375 -14.25 8.375 -12 5 C-11.34 5 -10.68 5 -10 5 C-10 4.34 -10 3.68 -10 3 C-3.375 0 -3.375 0 0 0 Z M-10.796875 6.4296875 C-12.33289906 8.16560357 -12.33289906 8.16560357 -12.5 11.6875 C-12.32444564 15.07132033 -12.32444564 15.07132033 -10 17 C-7.78927023 17.24253813 -7.78927023 17.24253813 -5.375 17.125 C-4.55773437 17.10695313 -3.74046875 17.08890625 -2.8984375 17.0703125 C-2.27195312 17.04710937 -1.64546875 17.02390625 -1 17 C-1.165 16.360625 -1.33 15.72125 -1.5 15.0625 C-2.15932515 11.02413348 -2.08003779 7.08192742 -2 3 C-6.23760408 3 -7.6682124 3.6644554 -10.796875 6.4296875 Z " fill="#7A9FA3" transform="translate(264,319)"/>
<path d="M0 0 C7.89405101 0.68643922 14.79630642 3.37513802 21.3125 7.875 C24.21560012 9.86581935 24.21560012 9.86581935 27.6875 9.5 C29.31636689 8.44343769 30.94099232 7.38032213 32.5625 6.3125 C35 5 35 5 37.15234375 5.41796875 C38.06693359 5.70607422 38.06693359 5.70607422 39 6 C37.28336882 7.20555009 35.55111532 8.38887724 33.8125 9.5625 C32.36810547 10.55443359 32.36810547 10.55443359 30.89453125 11.56640625 C28 13 28 13 25.62890625 12.95703125 C21.9716542 11.62563934 18.57285236 9.9230389 15.125 8.125 C10.14724458 5.55613945 5.17515283 3.14843159 0 1 C0 0.67 0 0.34 0 0 Z " fill="#95C7CD" transform="translate(186,72)"/>
<path d="M0 0 C0 3.69859196 -0.79844389 4.22773143 -3.25 6.875 C-5.24864829 9.06513555 -7.14767648 11.19531406 -8.9375 13.5625 C-11.94296263 17.11441038 -15.44554933 20.0107206 -19 23 C-19.61101562 23.51433594 -20.22203125 24.02867187 -20.8515625 24.55859375 C-22.22967314 25.7113735 -23.61408239 26.85661797 -25 28 C-25.66 27.67 -26.32 27.34 -27 27 C-26.34773438 26.35933594 -25.69546875 25.71867187 -25.0234375 25.05859375 C-19.24537676 19.3744274 -19.24537676 19.3744274 -13.875 13.3125 C-11.15596921 10.03571931 -8.08116536 7.32098378 -4.83203125 4.578125 C-3.13809049 3.11895215 -1.55835516 1.60177682 0 0 Z " fill="#9ED4DB" transform="translate(359,333)"/>
<path d="M0 0 C0.99 0.33 1.98 0.66 3 1 C2.03900391 1.80050781 2.03900391 1.80050781 1.05859375 2.6171875 C-5.06188216 7.88937092 -9.69003637 13.19106685 -14 20 C-14.63164062 20.98097656 -15.26328125 21.96195313 -15.9140625 22.97265625 C-17.12330065 24.8611578 -18.32587007 26.75395812 -19.51953125 28.65234375 C-20.65401056 30.45134657 -21.82024064 32.23036096 -23 34 C-23.66 34 -24.32 34 -25 34 C-22.90304527 28.32277099 -19.65632675 23.63552084 -16.3125 18.625 C-15.71244141 17.70460938 -15.11238281 16.78421875 -14.49414062 15.8359375 C-5.93744148 2.96872074 -5.93744148 2.96872074 0 0 Z " fill="#75979B" transform="translate(144,88)"/>
<path d="M0 0 C5.61241193 0.99913267 8.52822079 4.69638019 12 9 C14.46061788 12.68332956 16.73539373 16.47503004 18.96704102 20.30053711 C21.99340488 25.47860936 25.29996282 30.27887476 29 35 C28.67 35.66 28.34 36.32 28 37 C23.41164582 31.57398988 19.29835984 26.0330197 15.5625 20 C12.13607534 14.48737307 8.34040618 9.70289537 3.84765625 4.98828125 C2 3 2 3 0 0 Z " fill="#759599" transform="translate(279,90)"/>
<path d="M0 0 C0.90105469 0.11988281 1.80210937 0.23976563 2.73046875 0.36328125 C3.41753906 0.47027344 4.10460937 0.57726562 4.8125 0.6875 C4.8125 1.0175 4.8125 1.3475 4.8125 1.6875 C3.85537109 1.77837891 3.85537109 1.77837891 2.87890625 1.87109375 C1.63947266 1.99677734 1.63947266 1.99677734 0.375 2.125 C-0.44871094 2.20621094 -1.27242188 2.28742188 -2.12109375 2.37109375 C-4.17412025 2.47680815 -4.17412025 2.47680815 -5.1875 3.6875 C-5.47517538 6.92384803 -5.53211279 9.03454946 -4 11.9375 C-1.88328043 13.98122924 0.03258814 14.78590696 2.8125 15.6875 C2.60625 14.594375 2.4 13.50125 2.1875 12.375 C1.8125 8.6875 1.8125 8.6875 3.8125 5.6875 C4.3870952 9.42236879 4.8125 12.90043268 4.8125 16.6875 C5.4725 16.6875 6.1325 16.6875 6.8125 16.6875 C6.8125 17.3475 6.8125 18.0075 6.8125 18.6875 C1.39916876 18.0430558 -2.95230616 16.69917446 -7.0625 13 C-8.82541237 9.37623568 -8.57016172 6.70544804 -8.1875 2.6875 C-5.85132019 -0.75208722 -3.93146632 -0.56163805 0 0 Z " fill="#76989C" transform="translate(258.1875,88.3125)"/>
<path d="M0 0 C0.96679688 0.40992188 1.93359375 0.81984375 2.9296875 1.2421875 C17.0804118 7.14881478 29.73293459 8.45331906 45 9 C45 9.33 45 9.66 45 10 C27.280173 11.4218692 15.12764743 10.03781138 -1 2 C-0.67 1.34 -0.34 0.68 0 0 Z " fill="#8BB8BD" transform="translate(220,346)"/>
<path d="M0 0 C0 0.33 0 0.66 0 1 C-1.11181641 1.12955078 -1.11181641 1.12955078 -2.24609375 1.26171875 C-10.55240275 2.36990441 -18.2619859 4.40219923 -26.25 6.87890625 C-29.17478113 7.75329394 -31.99798208 8.47816485 -35 9 C-35 9.66 -35 10.32 -35 11 C-36.65 10.67 -38.3 10.34 -40 10 C-37.0990369 7.0990369 -33.50835605 6.30574808 -29.6875 5.0625 C-28.87949951 4.79816162 -28.07149902 4.53382324 -27.23901367 4.26147461 C-7.78813429 -1.99231342 -7.78813429 -1.99231342 0 0 Z " fill="#83ACB1" transform="translate(190,59)"/>
<path d="M0 0 C-0.33 0.99 -0.66 1.98 -1 3 C-2.68652344 3.66015625 -2.68652344 3.66015625 -4.859375 4.0625 C-6.03886719 4.29839844 -6.03886719 4.29839844 -7.2421875 4.5390625 C-8.06976563 4.69117187 -8.89734375 4.84328125 -9.75 5 C-15.16649608 6.01451831 -19.29938226 6.98586343 -24 10 C-26 9 -26 9 -27 7 C-18.14026026 3.07233196 -9.84850875 -0.50505173 0 0 Z " fill="#94C4CA" transform="translate(250,69)"/>
<path d="M0 0 C4.6548649 5.28961921 5.44049486 11.6047352 5.3359375 18.421875 C4.78194044 22.67348035 3.02422243 26.25880318 1 30 C0.34 29.34 -0.32 28.68 -1 28 C-0.67515625 27.49082031 -0.3503125 26.98164063 -0.015625 26.45703125 C1.3633561 23.12095773 1.26447711 20.28867997 1.25 16.6875 C1.25773437 14.77517578 1.25773437 14.77517578 1.265625 12.82421875 C1.06224086 9.89608535 0.76034575 7.86956119 -0.078125 5.14453125 C-1 2 -1 2 0 0 Z " fill="#749599" transform="translate(327,295)"/>
<path d="M0 0 C0.99 0 1.98 0 3 0 C2.5029626 5.94456729 1.25053551 10.56963317 -1.3125 15.9375 C-1.60833984 16.60845703 -1.90417969 17.27941406 -2.20898438 17.97070312 C-4.45594866 22.77037413 -4.45594866 22.77037413 -7.23046875 23.94140625 C-7.81441406 23.96074219 -8.39835937 23.98007812 -9 24 C-7.3492377 18.86429507 -5.33593894 13.95732044 -3.21875 9 C-2.01360267 6.03348351 -0.97958087 3.04758492 0 0 Z " fill="#92C2C8" transform="translate(381,269)"/>
<path d="M0 0 C4.15521749 0.81474853 7.04235278 1.56322477 10 4.6875 C12 8 12 8 12.125 11.625 C10.77068297 15.68795109 9.59547575 16.74788882 6 19 C2.7734375 19.2421875 2.7734375 19.2421875 -0.625 18.875 C-1.75164062 18.76929688 -2.87828125 18.66359375 -4.0390625 18.5546875 C-7 18 -7 18 -10 16 C-8.96359375 16.02320313 -7.9271875 16.04640625 -6.859375 16.0703125 C-5.48959056 16.08907667 -4.1197983 16.10727618 -2.75 16.125 C-1.72712891 16.15013672 -1.72712891 16.15013672 -0.68359375 16.17578125 C3.0608235 16.21213482 5.82352727 16.07944349 9 14 C9.41890218 11.21061788 9.41890218 11.21061788 9 8 C6.44975635 4.89835231 4.82300753 3.27433584 1 2 C1 4.31 1 6.62 1 9 C0.67 9 0.34 9 0 9 C0 6.03 0 3.06 0 0 Z " fill="#75989C" transform="translate(162,320)"/>
<path d="M0 0 C0 3.71928506 -1.34770822 5.69541645 -3 9 C-5.49784607 17.17476895 -4.14310846 25.25448273 -1 33 C-1.66 33.66 -2.32 34.32 -3 35 C-7.05779455 26.81195028 -8.6947749 19.09292245 -6.19921875 10.12109375 C-4.66150373 6.04228982 -3.28051214 2.9421212 0 0 Z " fill="#75999D" transform="translate(99,292)"/>
<path d="M0 0 C0.99 0.33 1.98 0.66 3 1 C3.08133791 2.91595968 3.13934367 4.83291932 3.1875 6.75 C3.23970703 8.35101563 3.23970703 8.35101563 3.29296875 9.984375 C2.97082786 13.30027855 2.22851086 14.59016673 0 17 C-1.875 16.75 -1.875 16.75 -4 16 C-5.25 13.9375 -5.25 13.9375 -6 12 C-6.66 12 -7.32 12 -8 12 C-9.54296875 10.35546875 -9.54296875 10.35546875 -11.1875 8.1875 C-11.73792969 7.47980469 -12.28835937 6.77210938 -12.85546875 6.04296875 C-13.23316406 5.36878906 -13.61085937 4.69460938 -14 4 C-13.67 3.01 -13.34 2.02 -13 1 C-8 6.75 -8 6.75 -8 9 C-7.34 9 -6.68 9 -6 9 C-4.64613064 10.65002828 -3.31321858 12.3174387 -2 14 C-1.34 14.33 -0.68 14.66 0 15 C0.19601608 13.25093341 0.38147403 11.50068154 0.5625 9.75 C0.66691406 8.77546875 0.77132812 7.8009375 0.87890625 6.796875 C0.98974468 4.2368648 0.77738092 2.41851841 0 0 Z " fill="#8BB9BF" transform="translate(159,319)"/>
<path d="M0 0 C0.66 0 1.32 0 2 0 C4.91721706 8.75165117 2.54291006 16.82283705 -1 25 C-1.66 24.01 -2.32 23.02 -3 22 C-2.34599838 20.32832297 -1.67604341 18.6628853 -1 17 C-0.60849671 14.07089568 -0.49374445 11.13879446 -0.375 8.1875 C-0.33632813 7.39923828 -0.29765625 6.61097656 -0.2578125 5.79882812 C-0.16411156 3.8662462 -0.08099221 1.93315624 0 0 Z " fill="#759599" transform="translate(329,106)"/>
<path d="M0 0 C3 0.125 3 0.125 4 1.125 C4.04080783 3.12458364 4.04254356 5.12545254 4 7.125 C1.36 7.125 -1.28 7.125 -4 7.125 C-4.04254356 5.12545254 -4.04080783 3.12458364 -4 1.125 C-3 0.125 -3 0.125 0 0 Z " fill="#373A3B" transform="translate(263,200.875)"/>
<path d="M0 0 C0.66 0 1.32 0 2 0 C0.71850124 3.95128783 -0.31727208 5.99547721 -4 8 C-6.92667747 8.36155265 -9.80692639 8.28267402 -12.75 8.1875 C-13.54277344 8.17396484 -14.33554687 8.16042969 -15.15234375 8.14648438 C-17.10185564 8.11125223 -19.05101626 8.05744821 -21 8 C-18.42215154 5.35247996 -16.08351902 3.05567935 -13 1 C-13.875 4.875 -13.875 4.875 -15 6 C-8.90932974 6.42004622 -5.89183119 6.0566405 -1 2 C-0.67 1.34 -0.34 0.68 0 0 Z " fill="#86AFB4" transform="translate(340,128)"/>
<path d="M0 0 C0.33 0 0.66 0 1 0 C1.07347656 1.08667969 1.07347656 1.08667969 1.1484375 2.1953125 C1.58973411 9.8384247 1.58973411 9.8384247 4 17 C6.50995496 18.43923199 6.50995496 18.43923199 9 19 C9 19.66 9 20.32 9 21 C5.50832834 20.70902736 4.23799325 20.24460417 1.75 17.6875 C-0.83961704 13.71058811 -1.13887656 10.50971388 -1.125 5.8125 C-1.12757812 4.93207031 -1.13015625 4.05164063 -1.1328125 3.14453125 C-1 1 -1 1 0 0 Z " fill="#8BB8BD" transform="translate(81,114)"/>
<path d="M0 0 C0.33 0 0.66 0 1 0 C1.31620422 6.79839071 0.12676382 13.30983984 -1 20 C-2.95984446 17.80720245 -3.96508517 16.58034106 -4.14453125 13.59765625 C-2.71985816 2.71985816 -2.71985816 2.71985816 0 0 Z " fill="#95C6CD" transform="translate(17,165)"/>
<path d="M0 0 C0.65355469 0.59748047 0.65355469 0.59748047 1.3203125 1.20703125 C7.19227871 6.4307934 12.01510179 9.20151018 20 10 C18 12 18 12 14.75 12.375 C8.2867971 11.72867971 4.16773402 7.78063609 0 3 C0 2.01 0 1.02 0 0 Z " fill="#98CBD1" transform="translate(135,327)"/>
<path d="M0 0 C4.47256213 0.94792168 7.87331734 3.09610092 11.75 5.4375 C12.44738281 5.84548828 13.14476562 6.25347656 13.86328125 6.67382812 C15.6125987 7.72307626 17.31150699 8.85543695 19 10 C19 10.66 19 11.32 19 12 C14.27827359 10.62223181 10.27437928 8.59101512 6.125 6 C5.53203125 5.64421875 4.9390625 5.2884375 4.328125 4.921875 C2.84705957 4.00730003 1.41787784 3.00976463 0 2 C0 1.34 0 0.68 0 0 Z " fill="#85B0B5" transform="translate(121,340)"/>
<path d="M0 0 C1.31225809 3.93677426 0.3393954 5.7794262 -0.9375 9.6875 C-1.31777344 10.86699219 -1.69804688 12.04648438 -2.08984375 13.26171875 C-2.39019531 14.16535156 -2.69054688 15.06898438 -3 16 C-3.99 15.34 -4.98 14.68 -6 14 C-5.71517632 12.58194169 -5.42181856 11.16559621 -5.125 9.75 C-4.96257813 8.96109375 -4.80015625 8.1721875 -4.6328125 7.359375 C-4.00106448 5.00396882 -3.24959008 3.09190636 -2 1 C-1.34 0.67 -0.68 0.34 0 0 Z " fill="#94C5CB" transform="translate(46,141)"/>
<path d="M0 0 C7.22891566 -0.48192771 7.22891566 -0.48192771 10.5 1.5625 C12.58392818 4.94888329 12.55802097 7.09385318 12 11 C10 13.4375 10 13.4375 8 15 C8 12 8 12 9 11 C9.07148199 9.64756083 9.08399454 8.29165633 9.0625 6.9375 C9.041875 5.638125 9.02125 4.33875 9 3 C6.03 2.67 3.06 2.34 0 2 C0 1.34 0 0.68 0 0 Z " fill="#86B0B5" transform="translate(162,88)"/>
<path d="M0 0 C-3.7897034 0.7751666 -6.30419273 0.97164525 -10 0 C-11.51270605 -0.14129118 -13.02928128 -0.24462817 -14.546875 -0.31640625 C-15.39121094 -0.35830078 -16.23554688 -0.40019531 -17.10546875 -0.44335938 C-17.97816406 -0.48267578 -18.85085937 -0.52199219 -19.75 -0.5625 C-20.63816406 -0.60568359 -21.52632812 -0.64886719 -22.44140625 -0.69335938 C-24.62745963 -0.79913615 -26.81362089 -0.90122546 -29 -1 C-29 -1.33 -29 -1.66 -29 -2 C-7.20621318 -4.06802357 -7.20621318 -4.06802357 0 0 Z " fill="#86B0B6" transform="translate(188,72)"/>
<path d="M0 0 C0 0.33 0 0.66 0 1 C-0.59167969 1.02578125 -1.18335937 1.0515625 -1.79296875 1.078125 C-5.51624401 1.34537477 -8.50952978 1.78085373 -11.9375 3.3125 C-15.26067213 7.64269399 -15.43895869 12.67429439 -16 18 C-16.33 18 -16.66 18 -17 18 C-17.96822159 13.35885086 -18.68428845 9.43875082 -16.375 5.125 C-11.40672274 -1.41220692 -7.62373324 -1.37858357 0 0 Z " fill="#8BB9BE" transform="translate(98,291)"/>
<path d="M0 0 C0.66 0.33 1.32 0.66 2 1 C1.67 6.28 1.34 11.56 1 17 C0.01 16.67 -0.98 16.34 -2 16 C-2.20413361 10.26157749 -2.27141454 5.39460953 0 0 Z " fill="#75989C" transform="translate(94,104)"/>
<path d="M0 0 C6.16985126 2.36868147 11.86599812 5.87047675 17 10 C17 10.66 17 11.32 17 12 C13.408811 10.65731932 10.21283008 9.05199725 6.9375 7.0625 C6.10089844 6.55847656 5.26429688 6.05445312 4.40234375 5.53515625 C2.18128824 4.1158476 0.08383044 2.61220138 -2 1 C-1.34 0.67 -0.68 0.34 0 0 Z " fill="#7DA2A6" transform="translate(285,74)"/>
<path d="M0 0 C0.33 0.99 0.66 1.98 1 3 C-1.9245081 8.3369428 -6.52846752 12.93497047 -11 17 C-11.66 17 -12.32 17 -13 17 C-11.63387799 13.90255505 -10.0959759 11.92333129 -7.625 9.625 C-4.5289764 6.63239263 -2.23758586 3.66964081 0 0 Z " fill="#8EBCC2" transform="translate(293,320)"/>
<path d="M0 0 C0.99 0.33 1.98 0.66 3 1 C2.34 1 1.68 1 1 1 C0.7628125 1.55429688 0.525625 2.10859375 0.28125 2.6796875 C-1.30452242 5.55148267 -3.28098092 7.71145652 -5.5 10.125 C-6.2940625 10.99382812 -7.088125 11.86265625 -7.90625 12.7578125 C-9.24743753 14.19408422 -10.61045683 15.61045683 -12 17 C-11.52328794 12.34160316 -9.73777828 10.17067431 -6.5625 6.8125 C-5.75941406 5.95269531 -4.95632812 5.09289062 -4.12890625 4.20703125 C-2.76477768 2.79284291 -1.38938393 1.38938393 0 0 Z " fill="#8BB7BD" transform="translate(157,90)"/>
<path d="M0 0 C0.99 0.33 1.98 0.66 3 1 C-3.66426444 6.88023333 -9.45187983 7.30408333 -18 7 C-15.00943664 5.00629109 -13.5686746 4.61202254 -10.125 4.0625 C-6.12382552 3.34030839 -3.44556813 2.19263427 0 0 Z " fill="#74969A" transform="translate(124,131)"/>
<path d="M0 0 C2.33329385 1.66663846 4.27016331 3.4321259 6.1875 5.5625 C5.07375 5.0984375 5.07375 5.0984375 3.9375 4.625 C0.6297204 3.30758547 0.6297204 3.30758547 -2.8125 2.5625 C-5.01428308 3.51622349 -5.01428308 3.51622349 -7.0625 5 C-7.76890625 5.47308594 -8.4753125 5.94617188 -9.203125 6.43359375 C-9.99976563 6.99240234 -9.99976563 6.99240234 -10.8125 7.5625 C-11.1425 6.5725 -11.4725 5.5825 -11.8125 4.5625 C-3.86014483 -0.60046697 -3.86014483 -0.60046697 0 0 Z " fill="#92C2C8" transform="translate(213.8125,341.4375)"/>
<path d="M0 0 C0.99 0.33 1.98 0.66 3 1 C1.98679688 1.90492187 1.98679688 1.90492187 0.953125 2.828125 C-0.38492188 4.02695313 -0.38492188 4.02695313 -1.75 5.25 C-2.63171875 6.03890625 -3.5134375 6.8278125 -4.421875 7.640625 C-6.67866165 9.70592672 -8.85739926 11.81735064 -11 14 C-11 10.30159372 -10.17133056 9.68584567 -7.75 7 C-7.14671875 6.319375 -6.5434375 5.63875 -5.921875 4.9375 C-4.029153 3.02939002 -2.29901035 1.39779829 0 0 Z " fill="#719095" transform="translate(144,88)"/>
<path d="M0 0 C0.66 0.66 1.32 1.32 2 2 C1.18015625 2.47050781 0.3603125 2.94101563 -0.484375 3.42578125 C-1.56203125 4.04839844 -2.6396875 4.67101562 -3.75 5.3125 C-4.81734375 5.92738281 -5.8846875 6.54226562 -6.984375 7.17578125 C-9.93973261 8.8893791 -9.93973261 8.8893791 -12.265625 10.73046875 C-14 12 -14 12 -16 12 C-16 11.34 -16 10.68 -16 10 C-13.73612378 8.38927867 -11.48281689 6.89786995 -9.125 5.4375 C-8.47402344 5.02564453 -7.82304687 4.61378906 -7.15234375 4.18945312 C-2.43105159 1.21552579 -2.43105159 1.21552579 0 0 Z " fill="#7FA6AB" transform="translate(137,74)"/>
<path d="M0 0 C1.50433594 0.01353516 1.50433594 0.01353516 3.0390625 0.02734375 C3.80992187 0.03894531 4.58078125 0.05054688 5.375 0.0625 C5.705 0.7225 6.035 1.3825 6.375 2.0625 C5.55515625 2.11148437 4.7353125 2.16046875 3.890625 2.2109375 C2.81296875 2.28570312 1.7353125 2.36046875 0.625 2.4375 C-0.97601563 2.54191406 -0.97601563 2.54191406 -2.609375 2.6484375 C-5.57795153 2.89146358 -5.57795153 2.89146358 -7.828125 4.1640625 C-8.42109375 4.46054687 -9.0140625 4.75703125 -9.625 5.0625 C-10.615 4.7325 -11.605 4.4025 -12.625 4.0625 C-7.95281941 1.23460122 -5.4935121 -0.06387805 0 0 Z " fill="#89B4B9" transform="translate(312.625,287.9375)"/>
<path d="M0 0 C0 0.66 0 1.32 0 2 C-2.30595384 3.62946228 -4.60196707 5.1435897 -7 6.625 C-8.00160156 7.25535156 -8.00160156 7.25535156 -9.0234375 7.8984375 C-10.67831454 8.93864592 -12.33866288 9.97014051 -14 11 C-14.99 10.34 -15.98 9.68 -17 9 C-16.16855469 8.51789063 -15.33710938 8.03578125 -14.48046875 7.5390625 C-13.39378906 6.90742188 -12.30710937 6.27578125 -11.1875 5.625 C-10.10855469 4.99851562 -9.02960938 4.37203125 -7.91796875 3.7265625 C-1.6199095 0 -1.6199095 0 0 0 Z " fill="#7A9FA3" transform="translate(303,340)"/>
<path d="M0 0 C2.32590854 3.63423209 2.16265833 6.77088331 2 11 C2.66 11 3.32 11 4 11 C4 11.66 4 12.32 4 13 C-1.75 12.25 -1.75 12.25 -4 10 C-3.34 9.67 -2.68 9.34 -2 9 C-1.34 9.33 -0.68 9.66 0 10 C-0.185625 8.906875 -0.37125 7.81375 -0.5625 6.6875 C-1 3 -1 3 0 0 Z " fill="#657E81" transform="translate(261,94)"/>
<path d="M0 0 C0.8971875 0.309375 0.8971875 0.309375 1.8125 0.625 C0.06993068 1.80273651 -1.68186407 2.96683179 -3.4375 4.125 C-4.41203125 4.7746875 -5.3865625 5.424375 -6.390625 6.09375 C-9.1875 7.625 -9.1875 7.625 -13.1875 7.625 C-13.1875 6.965 -13.1875 6.305 -13.1875 5.625 C-12.37345703 5.22667969 -12.37345703 5.22667969 -11.54296875 4.8203125 C-10.82753906 4.46710938 -10.11210937 4.11390625 -9.375 3.75 C-8.66730469 3.40195313 -7.95960938 3.05390625 -7.23046875 2.6953125 C-1.5715352 -0.26940603 -1.5715352 -0.26940603 0 0 Z " fill="#9ACED5" transform="translate(223.1875,77.375)"/>
<path d="M0 0 C0.99 0.33 1.98 0.66 3 1 C-2.94 6.445 -2.94 6.445 -9 12 C-9.33 11.01 -9.66 10.02 -10 9 C-8.71142987 7.68445979 -7.41904109 6.37265903 -6.125 5.0625 C-5.04605469 3.96615234 -5.04605469 3.96615234 -3.9453125 2.84765625 C-2 1 -2 1 0 0 Z " fill="#8FBEC4" transform="translate(314,294)"/>
<path d="M0 0 C2.61125422 0.95745988 3.79164659 1.65621688 5.25 4.0625 C6.2734742 8.07110729 6.16131784 11.8863951 6 16 C5.34 16 4.68 16 4 16 C3.81824219 14.77023437 3.81824219 14.77023437 3.6328125 13.515625 C3.46523438 12.43796875 3.29765625 11.3603125 3.125 10.25 C2.96257812 9.18265625 2.80015625 8.1153125 2.6328125 7.015625 C2.06776118 4.32291129 1.36577086 2.36427561 0 0 Z " fill="#88B3B8" transform="translate(338,294)"/>
<path d="M0 0 C0.33 0 0.66 0 1 0 C1.18451025 9.41002278 1.18451025 9.41002278 0 14 C-0.99 14 -1.98 14 -3 14 C-2.58846263 9.02906176 -2.20399168 4.55491614 0 0 Z " fill="#9ED3DA" transform="translate(391,232)"/>
<path d="M0 0 C0 0.66 0 1.32 0 2 C-5.445 4.475 -5.445 4.475 -11 7 C-11.33 6.34 -11.66 5.68 -12 5 C-10.66272409 2.32544817 -9.26711677 2.01118615 -6.5625 0.8125 C-5.75941406 0.44769531 -4.95632813 0.08289063 -4.12890625 -0.29296875 C-2 -1 -2 -1 0 0 Z " fill="#9BD0D6" transform="translate(297,394)"/>
<path d="M0 0 C1.02802734 0.0515625 2.05605469 0.103125 3.11523438 0.15625 C4.18708984 0.22070312 5.25894531 0.28515625 6.36328125 0.3515625 C7.9884668 0.43664062 7.9884668 0.43664062 9.64648438 0.5234375 C12.32358132 0.66495804 14.99974701 0.81637401 17.67578125 0.9765625 C17.67578125 1.3065625 17.67578125 1.6365625 17.67578125 1.9765625 C14.28046485 2.17433486 10.88452433 2.35795935 7.48828125 2.5390625 C6.52857422 2.59513672 5.56886719 2.65121094 4.58007812 2.70898438 C3.18305664 2.78149414 3.18305664 2.78149414 1.7578125 2.85546875 C0.90421143 2.9026001 0.05061035 2.94973145 -0.82885742 2.99829102 C-3.44775633 2.97548679 -5.77825027 2.56869456 -8.32421875 1.9765625 C-4.91183352 -0.29836099 -3.9637761 -0.21899315 0 0 Z " fill="#729397" transform="translate(247.32421875,354.0234375)"/>
<path d="M0 0 C-3.12781414 2.52631142 -6.29577411 4.42373366 -10 6 C-10.99 5.67 -11.98 5.34 -13 5 C-4.9 -1.75 -4.9 -1.75 0 0 Z " fill="#9BD0D6" transform="translate(297,373)"/>
<path d="M0 0 C0.99 0.33 1.98 0.66 3 1 C3.08133791 2.91595968 3.13934367 4.83291932 3.1875 6.75 C3.22230469 7.81734375 3.25710937 8.8846875 3.29296875 9.984375 C2.96808704 13.32849074 2.40833164 14.68710342 0 17 C-0.99 17 -1.98 17 -3 17 C-3 16.34 -3 15.68 -3 15 C-2.01 15 -1.02 15 0 15 C0.19601608 13.25093341 0.38147403 11.50068154 0.5625 9.75 C0.66691406 8.77546875 0.77132812 7.8009375 0.87890625 6.796875 C0.98974468 4.2368648 0.77738092 2.41851841 0 0 Z " fill="#94C6CC" transform="translate(159,319)"/>
<path d="M0 0 C2.49361571 1.20381448 4.68143083 2.45428722 7 4 C6.34 6.31 5.68 8.62 5 11 C2.4345406 8.4345406 2.45953913 6.52313332 2 3 C1.34 3 0.68 3 0 3 C0 2.01 0 1.02 0 0 Z " fill="#84ACB1" transform="translate(324,96)"/>
<path d="M0 0 C2.39652528 -0.08139142 4.79025436 -0.14067009 7.1875 -0.1875 C7.86103516 -0.21263672 8.53457031 -0.23777344 9.22851562 -0.26367188 C13.6719384 -0.32869757 16.50367569 0.19615157 20 3 C20 3.66 20 4.32 20 5 C19.47792969 4.79503906 18.95585938 4.59007812 18.41796875 4.37890625 C12.29251368 2.13683951 6.49617989 1.35212938 0 1 C0 0.67 0 0.34 0 0 Z " fill="#94C5CB" transform="translate(104,289)"/>
<path d="M0 0 C0.66 0.33 1.32 0.66 2 1 C1.60404157 2.48484412 1.18249294 3.9628831 0.75 5.4375 C0.51796875 6.26121094 0.2859375 7.08492188 0.046875 7.93359375 C-1 10 -1 10 -3.109375 10.78515625 C-3.73328125 10.85605469 -4.3571875 10.92695313 -5 11 C-4.55123384 9.35153231 -4.09069512 7.70626545 -3.625 6.0625 C-3.36976563 5.14597656 -3.11453125 4.22945313 -2.8515625 3.28515625 C-2 1 -2 1 0 0 Z " fill="#92C1C7" transform="translate(400,280)"/>
<path d="M0 0 C0.90105469 0.02707031 1.80210937 0.05414063 2.73046875 0.08203125 C3.76107422 0.13423828 3.76107422 0.13423828 4.8125 0.1875 C4.8125 0.8475 4.8125 1.5075 4.8125 2.1875 C1.81769083 3.0598412 -0.82325911 3.29579766 -3.9375 3.25 C-4.73671875 3.24097656 -5.5359375 3.23195313 -6.359375 3.22265625 C-6.96265625 3.21105469 -7.5659375 3.19945312 -8.1875 3.1875 C-5.67753317 0.01043235 -3.96125134 -0.15433447 0 0 Z " fill="#9DD2D8" transform="translate(239.1875,389.8125)"/>
<path d="M0 0 C4.78478822 -0.09764874 9.27685687 0.22887459 14 1 C14 3.64 14 6.28 14 9 C13.54625 8.236875 13.0925 7.47375 12.625 6.6875 C8.96051102 2.93576128 5.00667954 2.17523203 0 1 C0 0.67 0 0.34 0 0 Z " fill="#739498" transform="translate(148,87)"/>
<path d="M0 0 C0.90105469 0.02707031 1.80210937 0.05414062 2.73046875 0.08203125 C3.76107422 0.13423828 3.76107422 0.13423828 4.8125 0.1875 C4.8125 0.8475 4.8125 1.5075 4.8125 2.1875 C1.81769083 3.0598412 -0.82325911 3.29579766 -3.9375 3.25 C-4.73671875 3.24097656 -5.5359375 3.23195313 -6.359375 3.22265625 C-6.96265625 3.21105469 -7.5659375 3.19945312 -8.1875 3.1875 C-5.67753317 0.01043235 -3.96125134 -0.15433447 0 0 Z " fill="#9DD3D9" transform="translate(182.1875,23.8125)"/>
<path d="M0 0 C-3.01887244 3.48331435 -5.56909529 4.79157144 -10 6 C-10 5.34 -10 4.68 -10 4 C-10.66 3.67 -11.32 3.34 -12 3 C-10.3789897 2.30314502 -8.75303934 1.61777139 -7.125 0.9375 C-6.22007812 0.55464844 -5.31515625 0.17179687 -4.3828125 -0.22265625 C-2 -1 -2 -1 0 0 Z " fill="#91C1C7" transform="translate(286,377)"/>
<path d="M0 0 C0.99 0.33 1.98 0.66 3 1 C1.35 4.3 -0.3 7.6 -2 11 C-2.99 11 -3.98 11 -5 11 C-4.731875 10.484375 -4.46375 9.96875 -4.1875 9.4375 C-2.67650593 6.33598585 -1.34427274 3.17737194 0 0 Z " fill="#7EA4A9" transform="translate(341,310)"/>
<path d="M0 0 C0.66 0.33 1.32 0.66 2 1 C0.41641358 4.16717283 -0.45263699 5.73268318 -3.6875 7.3125 C-4.450625 7.539375 -5.21375 7.76625 -6 8 C-6 6.68 -6 5.36 -6 4 C-3 1.75 -3 1.75 0 0 Z " fill="#95C7CD" transform="translate(321,366)"/>
<path d="M0 0 C0 0.33 0 0.66 0 1 C-5.28 1.66 -10.56 2.32 -16 3 C-15.67 2.34 -15.34 1.68 -15 1 C-9.46976623 -0.8116283 -5.67273622 -1.18182005 0 0 Z " fill="#8AB6BC" transform="translate(190,59)"/>
<path d="M0 0 C-2.06756277 2.7972908 -3.14440371 3.02692273 -6.6875 3.6875 C-7.780625 3.790625 -8.87375 3.89375 -10 4 C-9.67 3.01 -9.34 2.02 -9 1 C-3.79245283 -1.26415094 -3.79245283 -1.26415094 0 0 Z " fill="#99CDD3" transform="translate(278,402)"/>
<path d="M0 0 C1 3 1 3 -0.25 6.125 C-2 9 -2 9 -5 10 C-4.49701212 5.59885603 -2.91227269 3.28804981 0 0 Z " fill="#9CD1D7" transform="translate(387,286)"/>
<path d="M0 0 C3.25524265 3.02272532 5.61820737 6.25718301 8 10 C7.01 10 6.02 10 5 10 C3.39453125 8.25 3.39453125 8.25 1.8125 6 C1.28269531 5.2575 0.75289063 4.515 0.20703125 3.75 C-0.19128906 3.1725 -0.58960938 2.595 -1 2 C-0.67 1.34 -0.34 0.68 0 0 Z " fill="#80A6AB" transform="translate(289,119)"/>
<path d="M0 0 C0.66 0.66 1.32 1.32 2 2 C1.2575 2.5775 0.515 3.155 -0.25 3.75 C-2.66087643 5.72253526 -4.84042701 7.76044282 -7 10 C-7 6.47967572 -6.29648649 5.5614657 -4 3 C-3.34 3 -2.68 3 -2 3 C-2 2.34 -2 1.68 -2 1 C-1.34 0.67 -0.68 0.34 0 0 Z " fill="#799EA2" transform="translate(299,292)"/>
<path d="M0 0 C1 3 1 3 -0.4375 6.1875 C-1.2109375 7.5796875 -1.2109375 7.5796875 -2 9 C-2.99 9 -3.98 9 -5 9 C-3.90931332 5.22454612 -3.0916909 2.52956528 0 0 Z " fill="#9DD2D9" transform="translate(374,291)"/>
<path d="M0 0 C0.33 0 0.66 0 1 0 C1 3.96 1 7.92 1 12 C-2.13176139 7.82431815 -2.53551172 6.92670782 -2 2 C-1.34 1.34 -0.68 0.68 0 0 Z " fill="#8FBEC4" transform="translate(15,173)"/>
<path d="M0 0 C-0.64544429 3.48539917 -2.10134397 6.02819057 -4 9 C-4.33 8.01 -4.66 7.02 -5 6 C-4.34 5.01 -3.68 4.02 -3 3 C-3.66 3 -4.32 3 -5 3 C-5 2.34 -5 1.68 -5 1 C-3 0 -3 0 0 0 Z " fill="#8AB6BC" transform="translate(100,96)"/>
<path d="M0 0 C0 3.29657856 -0.74333269 5.16364428 -2 8.1875 C-2.37125 9.08855469 -2.7425 9.98960937 -3.125 10.91796875 C-3.41375 11.60503906 -3.7025 12.29210937 -4 13 C-4.33 13 -4.66 13 -5 13 C-4.64989059 4.80743982 -4.64989059 4.80743982 -1.9375 1.4375 C-1.298125 0.963125 -0.65875 0.48875 0 0 Z " fill="#82ABB0" transform="translate(99,292)"/>
<path d="M0 0 C1 3 1 3 -0.25 5.625 C-2 8 -2 8 -5 9 C-3.90931332 5.22454612 -3.0916909 2.52956528 0 0 Z " fill="#9ED3DA" transform="translate(397,289)"/>
<path d="M0 0 C0.99 0 1.98 0 3 0 C4.38671875 1.75 4.38671875 1.75 5.6875 4 C6.12449219 4.7425 6.56148438 5.485 7.01171875 6.25 C7.33785156 6.8275 7.66398437 7.405 8 8 C7.34 8.66 6.68 9.32 6 10 C3.78286492 6.74820188 1.65167557 3.5786304 0 0 Z " fill="#7A9DA2" transform="translate(274,100)"/>
<path d="M0 0 C4.79280002 0.80904103 6.13520113 3.25984591 9 7 C6 7 6 7 4.39453125 5.46875 C3.87246094 4.8190625 3.35039062 4.169375 2.8125 3.5 C2.28269531 2.8503125 1.75289063 2.200625 1.20703125 1.53125 C0.80871094 1.0259375 0.41039062 0.520625 0 0 Z " fill="#75969A" transform="translate(279,90)"/>
<path d="M0 0 C0.66 0.33 1.32 0.66 2 1 C-0.40436026 4.60654039 -1.94679607 4.85452932 -6 6 C-6.33 5.01 -6.66 4.02 -7 3 C-4.69631264 1.93347808 -2.35981813 0.93578995 0 0 Z " fill="#91C1C7" transform="translate(142,34)"/>
<path d="M0 0 C0.33 0.66 0.66 1.32 1 2 C-1.31 2.33 -3.62 2.66 -6 3 C-6 2.34 -6 1.68 -6 1 C-6.66 0.67 -7.32 0.34 -8 0 C-4.97878489 -0.97110486 -2.99536737 -1.13617383 0 0 Z " fill="#8FBDC3" transform="translate(269,405)"/>
<path d="M0 0 C0.66 0 1.32 0 2 0 C1.50769231 6.52307692 1.50769231 6.52307692 -1.0625 8.9375 C-1.701875 9.288125 -2.34125 9.63875 -3 10 C-3.66 9.34 -4.32 8.68 -5 8 C-4.0409375 7.690625 -4.0409375 7.690625 -3.0625 7.375 C-0.65074923 6.10461791 -0.65074923 6.10461791 -0.25 2.875 C-0.1675 1.92625 -0.085 0.9775 0 0 Z " fill="#7CA2A6" transform="translate(172,328)"/>
<path d="M0 0 C0.6875 1.75 0.6875 1.75 1 4 C-0.3125 6.25 -0.3125 6.25 -2 8 C-2.66 8 -3.32 8 -4 8 C-3.40138258 5.64828869 -2.73075648 3.3140622 -2 1 C-1.34 0.67 -0.68 0.34 0 0 Z " fill="#97C9D0" transform="translate(380,277)"/>
<path d="M0 0 C2.97 0.495 2.97 0.495 6 1 C6 1.66 6 2.32 6 3 C7.32 3.66 8.64 4.32 10 5 C6.63295715 5.2295711 4.58629732 5.33943529 1.625 3.625 C1.08875 3.08875 0.5525 2.5525 0 2 C0 1.34 0 0.68 0 0 Z " fill="#93C4C9" transform="translate(99,132)"/>
<path d="M0 0 C0.66 0.66 1.32 1.32 2 2 C-0.64 2.66 -3.28 3.32 -6 4 C-6 2.68 -6 1.36 -6 0 C-3 -1 -3 -1 0 0 Z " fill="#90BFC5" transform="translate(283,389)"/>
<path d="M0 0 C0 0.66 0 1.32 0 2 C-2.35438733 3.42944945 -3.48032433 4.08661261 -6.25 3.625 C-6.8275 3.41875 -7.405 3.2125 -8 3 C-6.23110084 -0.53779831 -3.70375662 0 0 0 Z " fill="#9BCFD5" transform="translate(276,381)"/>
<path d="M0 0 C-3.18762365 2.12508244 -5.26512223 2.5020163 -9 3 C-9 2.01 -9 1.02 -9 0 C-3.375 -1.125 -3.375 -1.125 0 0 Z " fill="#769A9E" transform="translate(281,337)"/>
<path d="M0 0 C2.0625 1.6875 2.0625 1.6875 4 4 C3.75 6.75 3.75 6.75 3 9 C0.69 8.67 -1.62 8.34 -4 8 C-4 7.67 -4 7.34 -4 7 C-2.02 7 -0.04 7 2 7 C1.34 4.69 0.68 2.38 0 0 Z " fill="#5B7274" transform="translate(261,329)"/>
<path d="M0 0 C3.21043882 1.38188453 5.04936365 2.92421903 7.25 5.625 C8.03117187 6.57246094 8.03117187 6.57246094 8.828125 7.5390625 C9.40820312 8.26222656 9.40820312 8.26222656 10 9 C7 9 7 9 5.17578125 7.28515625 C4.56089844 6.55167969 3.94601563 5.81820313 3.3125 5.0625 C2.68988281 4.33160156 2.06726563 3.60070312 1.42578125 2.84765625 C0 1 0 1 0 0 Z " fill="#9FD5DC" transform="translate(111,296)"/>
<path d="M0 0 C0.66 0.33 1.32 0.66 2 1 C1.67 1.99 1.34 2.98 1 4 C-1.5625 5.1875 -1.5625 5.1875 -4 6 C-4.33 5.34 -4.66 4.68 -5 4 C-3.36587557 2.29159719 -2.13093906 1.06546953 0 0 Z " fill="#93C4CA" transform="translate(301,390)"/>
<path d="M0 0 C0.33 0.66 0.66 1.32 1 2 C-0.65 4.31 -2.3 6.62 -4 9 C-4.33 7.68 -4.66 6.36 -5 5 C-2.5625 2.25 -2.5625 2.25 0 0 Z " fill="#88B3B9" transform="translate(291,301)"/>
<path d="M0 0 C0 0.66 0 1.32 0 2 C-1.98 2.33 -3.96 2.66 -6 3 C-6 2.34 -6 1.68 -6 1 C-6.66 0.67 -7.32 0.34 -8 0 C-4.94736336 -0.98120464 -3.05263664 -0.98120464 0 0 Z " fill="#88B2B7" transform="translate(243,71)"/>
<path d="M0 0 C-0.33 0.99 -0.66 1.98 -1 3 C-2.65 3.33 -4.3 3.66 -6 4 C-6 2.68 -6 1.36 -6 0 C-3 -1 -3 -1 0 0 Z " fill="#91C0C6" transform="translate(148,23)"/>
<path d="M0 0 C0 0.33 0 0.66 0 1 C-7.625 2.25 -7.625 2.25 -11 0 C-7.01803543 -1.05404945 -4.01804691 -0.84098656 0 0 Z " fill="#87B2B7" transform="translate(246,366)"/>
<path d="M0 0 C-0.33 0.99 -0.66 1.98 -1 3 C-4.0625 4.1875 -4.0625 4.1875 -7 5 C-7.66 4.34 -8.32 3.68 -9 3 C-2.25 0 -2.25 0 0 0 Z " fill="#88B4B9" transform="translate(202,347)"/>
<path d="M0 0 C2.96175123 0.61277612 4.38058783 1.25372522 7 3 C6.67 3.99 6.34 4.98 6 6 C3.96166576 4.7260411 1.96147874 3.38938077 0 2 C0 1.34 0 0.68 0 0 Z " fill="#7EA6AB" transform="translate(121,340)"/>
<path d="M0 0 C-0.66 0.66 -1.32 1.32 -2 2 C-2.66 1.67 -3.32 1.34 -4 1 C-5.53668865 0.77532169 -7.07968054 0.59203195 -8.625 0.4375 C-9.44226563 0.35371094 -10.25953125 0.26992188 -11.1015625 0.18359375 C-11.72804688 0.12300781 -12.35453125 0.06242187 -13 0 C-13 -0.33 -13 -0.66 -13 -1 C-4.57142857 -2.42857143 -4.57142857 -2.42857143 0 0 Z " fill="#688487" transform="translate(339,293)"/>
<path d="M0 0 C0.33 0 0.66 0 1 0 C1 3.63 1 7.26 1 11 C0.01 10.67 -0.98 10.34 -2 10 C-1.34 6.7 -0.68 3.4 0 0 Z " fill="#5E7679" transform="translate(94,110)"/>
<path d="M0 0 C2 1 2 1 3 3 C-1.455 3.495 -1.455 3.495 -6 4 C-3 1 -3 1 0 0 Z " fill="#8FBEC4" transform="translate(144,71)"/>
<path d="M0 0 C-0.33 0.99 -0.66 1.98 -1 3 C-3.31 3 -5.62 3 -8 3 C-5.53387212 -0.1151089 -3.89156016 -0.31553191 0 0 Z " fill="#9CD1D8" transform="translate(180,14)"/>
<path d="M0 0 C0.33 0.99 0.66 1.98 1 3 C-0.3125 5.1875 -0.3125 5.1875 -2 7 C-2.66 7 -3.32 7 -4 7 C-2.92598892 4.08482708 -2.22189824 2.22189824 0 0 Z " fill="#9DD2D9" transform="translate(44,123)"/>
<path d="M0 0 C2 1 2 1 3 3 C1.02 3.66 -0.96 4.32 -3 5 C-3.33 4.01 -3.66 3.02 -4 2 C-2.125 0.9375 -2.125 0.9375 0 0 Z " fill="#7EA4A8" transform="translate(227,74)"/>
<path d="M0 0 C0.94875 0.350625 1.8975 0.70125 2.875 1.0625 C2.875 1.3925 2.875 1.7225 2.875 2.0625 C-1.58 2.5575 -1.58 2.5575 -6.125 3.0625 C-5.795 2.0725 -5.465 1.0825 -5.125 0.0625 C-3.125 -0.9375 -3.125 -0.9375 0 0 Z " fill="#8EBBC1" transform="translate(176.125,25.9375)"/>
<path d="M0 0 C-1.25 1.5625 -1.25 1.5625 -3 3 C-5.1875 2.6875 -5.1875 2.6875 -7 2 C-5.26578631 -1.46842738 -3.40984787 -1.13661596 0 0 Z " fill="#9BCFD6" transform="translate(143,25)"/>
<path d="M0 0 C0.94875 0.350625 1.8975 0.70125 2.875 1.0625 C2.875 1.3925 2.875 1.7225 2.875 2.0625 C-1.58 2.5575 -1.58 2.5575 -6.125 3.0625 C-5.795 2.0725 -5.465 1.0825 -5.125 0.0625 C-3.125 -0.9375 -3.125 -0.9375 0 0 Z " fill="#8FBDC2" transform="translate(174.125,15.9375)"/>
</svg>
